<?xml version="1.0" encoding="UTF-8"?>
<svg width="1500px" height="500px" viewBox="0 0 1500 500" version="1.1" xmlns="http://www.w3.org/2000/svg" xmlns:xlink="http://www.w3.org/1999/xlink">
    <title>Header</title>
    <g id="Header" stroke="none" stroke-width="1" fill="none" fill-rule="evenodd">
        <rect fill="#131415" x="0" y="0" width="1500" height="500"></rect>
        <path d="M496.74,239 C506.02,239.16 514.34,237.88 521.7,235.16 C524.82,233.96 527.88,232.4 530.88,230.48 C533.88,228.56 536.56,226.1 538.92,223.1 C541.28,220.1 543.18,216.52 544.62,212.36 C546.06,208.2 546.78,203.32 546.78,197.72 C546.78,192.04 546.06,187.06 544.62,182.78 C543.18,178.5 541.3,174.82 538.98,171.74 C536.66,168.66 534.02,166.1 531.06,164.06 C528.1,162.02 525.06,160.4 521.94,159.2 C514.58,156.32 506.3,154.92 497.1,155 L497.1,155 L452.58,155 L452.58,155.96 L464.58,155.96 L464.58,238.04 L452.58,238.04 L452.58,239 L496.74,239 Z M496.74,238.04 L491.7,238.04 L491.7,155.96 L497.1,155.96 C501.18,156.12 504.82,157.52 508.02,160.16 C509.38,161.28 510.72,162.74 512.04,164.54 C513.36,166.34 514.52,168.6 515.52,171.32 C516.52,174.04 517.34,177.24 517.98,180.92 C518.62,184.6 518.94,188.88 518.94,193.76 L518.94,193.76 L518.94,200.12 C518.94,204.84 518.62,209.02 517.98,212.66 C517.34,216.3 516.5,219.46 515.46,222.14 C514.42,224.82 513.22,227.06 511.86,228.86 C510.5,230.66 509.14,232.16 507.78,233.36 C504.58,236.16 500.9,237.72 496.74,238.04 L496.74,238.04 Z M564.66,239.48 C568.18,239.48 571.74,238.66 575.34,237.02 C578.94,235.38 582.22,233.72 585.18,232.04 L585.18,232.04 L586.02,231.56 L586.02,239 L616.98,239 L616.98,238.04 L608.1,238.04 L608.1,193.64 C608.1,189.96 607.3,186.9 605.7,184.46 C604.1,182.02 602.06,180.12 599.58,178.76 C597.1,177.4 594.34,176.44 591.3,175.88 C588.26,175.32 585.26,175.04 582.3,175.04 C579.74,175.04 576.84,175.22 573.6,175.58 C570.36,175.94 567.3,176.68 564.42,177.8 C561.54,178.92 559.12,180.48 557.16,182.48 C555.2,184.48 554.22,187.12 554.22,190.4 C554.22,191.92 554.56,193.32 555.24,194.6 C555.92,195.88 556.8,197 557.88,197.96 C558.96,198.92 560.16,199.66 561.48,200.18 C562.8,200.7 564.14,200.96 565.5,200.96 C567.74,200.96 569.72,200.24 571.44,198.8 C573.16,197.36 574.02,195.36 574.02,192.8 C574.02,191.28 573.56,190.04 572.64,189.08 C571.72,188.12 570.68,187.28 569.52,186.56 C568.36,185.84 567.32,185.12 566.4,184.4 C565.48,183.68 565.02,182.72 565.02,181.52 C565.02,180.64 565.32,179.86 565.92,179.18 C566.52,178.5 567.18,178 567.9,177.68 C568.78,177.28 569.72,177.02 570.72,176.9 C571.72,176.78 572.7,176.72 573.66,176.72 C576.38,176.72 578.56,177.24 580.2,178.28 C581.84,179.32 583.1,180.68 583.98,182.36 C584.86,184.04 585.42,185.92 585.66,188 C585.9,190.08 586.02,192.16 586.02,194.24 L586.02,194.24 L586.02,197.24 C582.98,198.84 579.76,200.48 576.36,202.16 C572.96,203.84 569.74,205.56 566.7,207.32 C565.34,208.04 563.96,208.86 562.56,209.78 C561.16,210.7 559.82,211.64 558.54,212.6 C557.26,213.56 556.1,214.54 555.06,215.54 C554.02,216.54 553.26,217.44 552.78,218.24 C552.14,219.28 551.62,220.4 551.22,221.6 C550.82,222.8 550.62,224.04 550.62,225.32 C550.62,227.56 551,229.56 551.76,231.32 C552.52,233.08 553.54,234.56 554.82,235.76 C556.1,236.96 557.54,237.88 559.14,238.52 C560.74,239.16 562.38,239.48 564.06,239.48 L564.06,239.48 L564.66,239.48 Z M580.14,233 C578.7,233 577.38,232.3 576.18,230.9 C574.98,229.5 574.38,228.04 574.38,226.52 L574.38,226.52 L574.38,219.08 C574.38,217 574.66,214.9 575.22,212.78 C575.78,210.66 576.56,208.68 577.56,206.84 C578.56,205 579.78,203.34 581.22,201.86 C582.66,200.38 584.26,199.24 586.02,198.44 L586.02,198.44 L586.02,230.36 C585.38,230.76 584.66,231.16 583.86,231.56 L583.86,231.56 L581.7,232.64 C581.22,232.88 580.7,233 580.14,233 Z M659.46,239 L659.46,238.04 L650.46,238.04 L650.46,194.72 C650.46,193.76 650.54,192.56 650.7,191.12 C650.86,189.68 651.12,188.22 651.48,186.74 C651.84,185.26 652.26,183.88 652.74,182.6 C653.22,181.32 653.82,180.32 654.54,179.6 C655.1,178.96 655.7,178.42 656.34,177.98 C656.98,177.54 657.66,177.32 658.38,177.32 C659.1,177.32 659.84,177.42 660.6,177.62 C661.36,177.82 661.98,178.2 662.46,178.76 C663.34,179.96 663.96,181.36 664.32,182.96 C664.68,184.56 664.86,186.16 664.86,187.76 L664.86,187.76 L664.86,221.12 C664.86,223.6 665.22,225.92 665.94,228.08 C666.66,230.24 667.86,232.14 669.54,233.78 C671.22,235.42 673.4,236.7 676.08,237.62 C678.76,238.54 682.06,239 685.98,239 L685.98,239 L696.54,239 L696.54,238.04 C693.9,238.04 692.04,236.66 690.96,233.9 C689.88,231.14 689.34,227.4 689.34,222.68 L689.34,222.68 L689.34,187.4 C689.34,186.44 689.2,185.5 688.92,184.58 C688.64,183.66 688.3,182.76 687.9,181.88 C686.78,179.48 685.18,177.6 683.1,176.24 C681.02,174.88 678.62,174 675.9,173.6 C673.18,173.2 670.62,173 668.22,173 C665.82,173 663.56,173.36 661.44,174.08 C659.32,174.8 657.3,175.96 655.38,177.56 C654.18,178.44 653.22,179.32 652.5,180.2 C651.78,181.08 651.1,182.2 650.46,183.56 L650.46,183.56 L650.46,174.44 C648.78,174.92 646.52,175.32 643.68,175.64 C640.84,175.96 637.82,176.22 634.62,176.42 C631.42,176.62 628.22,176.76 625.02,176.84 C621.82,176.92 619.1,176.96 616.86,176.96 L616.86,176.96 L616.86,177.92 L625.98,177.92 L625.98,238.04 L616.98,238.04 L616.98,239 L659.46,239 Z M720.18,170.96 C722.02,170.96 723.76,170.72 725.4,170.24 C727.04,169.76 728.48,169.1 729.72,168.26 C730.96,167.42 731.94,166.44 732.66,165.32 C733.38,164.2 733.74,163 733.74,161.72 C733.74,160.44 733.38,159.24 732.66,158.12 C731.94,157 730.96,156.02 729.72,155.18 C728.48,154.34 727.04,153.68 725.4,153.2 C723.76,152.72 722.02,152.48 720.18,152.48 C718.34,152.48 716.6,152.72 714.96,153.2 C713.32,153.68 711.88,154.34 710.64,155.18 C709.4,156.02 708.42,157 707.7,158.12 C706.98,159.24 706.62,160.44 706.62,161.72 C706.62,163 706.98,164.2 707.7,165.32 C708.42,166.44 709.4,167.42 710.64,168.26 C711.88,169.1 713.32,169.76 714.96,170.24 C716.6,170.72 718.34,170.96 720.18,170.96 Z M741.06,239 L741.06,238.04 L732.06,238.04 L732.06,174.44 C730.38,174.92 728.14,175.32 725.34,175.64 C722.54,175.96 719.56,176.22 716.4,176.42 C713.24,176.62 710.1,176.76 706.98,176.84 C703.86,176.92 701.18,176.96 698.94,176.96 L698.94,177.92 L708.06,177.92 L708.06,238.04 L698.94,238.04 L698.94,239 L741.06,239 Z" id="DanielMoya" fill="#FFFFFF" fill-rule="nonzero"></path>
        <g id="Logo-Copy-2" transform="translate(741.000000, 16.000000)">
            <path d="M65.1165983,50.6693654 C76.1381536,53.798399 83.3588755,56.447366 86.7787639,58.6162664 C91.9809444,61.9154999 94.86705,65.2425139 96.3234328,68.7217631 C102.869334,66.5976686 110.392292,65.6010824 119.10876,66.2622249 C182.62447,68.4594439 201.53409,117.930732 200.084931,140.542712 C198.559721,156.12275 194.152703,182.297388 175.791592,199.371609 C175.055204,205.696889 174.705185,210.567479 174.739589,213.982741 C174.790588,219.045263 177.544341,224.477121 183.000848,230.278314 C171.777644,227.320758 164.475284,224.727852 161.093769,222.499597 C156.129064,219.228096 153.171414,216.159754 151.639024,212.89811 C144.301819,215.052053 135.839308,216.202696 126.07888,216.038916 C64.2471177,215.001377 48.5815582,166.194908 48.5815582,140.542712 C48.5815582,128.290375 53.5437463,108.288836 66.2779389,91.6425504 C67.8967505,89.5264208 69.6306371,87.4165665 71.5021582,85.3678034 C72.5783561,77.9758466 73.0621365,72.3114582 72.9537324,68.3743216 C72.8143879,63.3134605 70.2020099,57.4118084 65.1165983,50.6693654 Z" id="Border" stroke="#FFFFFF" stroke-width="20" fill="#FFFFFF" stroke-linejoin="round"></path>
            <g id="Isotype" transform="translate(132.747874, 136.500000) rotate(141.000000) translate(-132.747874, -136.500000) translate(49.721082, 28.091089)">
                <path d="M128.880182,48.0129662 C157.269062,66.3943159 168.125707,92.4521902 161.450117,126.186589 C154.774528,159.920988 134.143921,178.855946 99.5582986,182.991462 C93.6508645,187.187176 89.8439934,190.283168 88.1376854,192.279438 C83.1684766,198.093091 82.151034,202.992701 79.2348598,202.836712 C74.8166683,202.600379 72.3388865,195.490385 71.8015146,181.506729 C65.718937,180.627998 61.2999912,178.27327 58.5446772,174.442544 C55.7893632,170.611818 53.2091447,163.235575 50.8040216,152.313815 C49.0240053,144.422392 49.0240053,139.208106 50.8040216,136.670957 C51.8981086,135.111499 56.8856422,132.181677 67.2469671,130.925077 C70.0331415,130.587176 78.8802985,130.987581 93.7884382,132.126294 L86.5735181,114.329612 C92.1269338,116.228259 95.6540828,116.228259 97.1549651,114.329612 C98.6558474,112.430966 98.6558474,107.96905 97.1549651,100.943866 L89.8421018,91.083714 C97.5270864,90.1542204 103.565948,89.6894737 107.958687,89.6894737 C112.351426,89.6894737 118.33699,90.1542204 125.915379,91.083714 C131.986542,89.8905004 135.209509,86.5716946 135.584277,81.1272964 C135.959046,75.6828982 133.724348,64.6447882 128.880182,48.0129662 Z" id="Rio-Body-color" fill="#FDC080"></path>
                <path d="M48.1431594,54.0852735 C30.8359865,68.8237996 22.4459177,86.0395578 22.972953,105.732548 C25.1508281,124.491886 28.106927,137.831887 31.8412495,145.752551 C35.575572,153.673215 42.5206746,161.334103 52.6765574,168.735214 L48.1431594,140.651188 C50.0664362,135.438593 54.312765,132.113798 60.8821458,130.676802 C67.4515267,129.239806 78.4048536,129.239806 93.7421266,130.676802 C91.188114,127.064703 89.3626631,124.149951 88.265774,121.932544 C87.1688849,119.715138 85.8093857,116.191384 84.1872763,111.361281 C89.6481127,117.291344 93.9654973,118.206734 97.13943,114.107451 C100.313363,110.008167 98.3378386,102.259534 91.2128575,90.8615523 L125.899844,90.8615523 C131.4216,86.8060839 134.561736,83.487278 135.320252,80.9051347 C136.078768,78.3229914 135.100759,74.2814759 132.386225,68.7805882 C131.581347,58.3797332 129.41922,51.3831387 125.899844,47.7908046 C123.434835,45.2746961 113.699048,38.2878114 99.5427636,37.40037 C83.3819298,36.3872657 61.9817938,42.3005022 48.1431594,54.0852735 Z" id="Tokyo-Body-color" fill="#FFFFFF"></path>
                <g id="Rio-details" transform="translate(48.808716, 87.627249)">
                    <path d="M45.4613812,54.8169407 C52.5975565,51.8074901 56.2927016,48.9555301 56.5468165,46.2610607 L40.6175132,43.9645213 C17.1987643,43.917501 5.43594077,44.5255235 5.32904253,45.7885891 C5.25805238,46.6273793 -2.22136513,61.379022 0.660293467,61.6342837 C2.30763511,61.7802077 6.751087,61.2895663 10.8228696,58.3474632 C15.9470937,54.6449089 23.0921433,55.0998619 25.3728095,55.826753 C34.318982,58.6780658 42.7295738,55.9689918 45.4613812,54.8169407 Z M63.4024224,32.3286943 C67.7557562,22.0022329 67.1717601,12.8212481 61.6504341,4.78574003 C58.0838285,2.40066797 55.4507099,1.26306644 53.7510786,1.37293542 C51.4456335,1.52196593 48.0711372,3.0479167 43.6275899,5.95078774 C47.0917153,10.8551011 49.293956,14.6185534 50.2343119,17.2411445 C51.1746678,19.8637357 51.6979296,23.7015318 51.8040974,28.7545328 L63.4024224,32.3286943 Z" id="White-spots" fill="#FFFFFF"></path>
                    <path d="M59.2341348,58.6134946 C59.2852303,58.6049144 59.4470374,59.0439767 59.7009518,59.802663 L59.8153572,60.1470099 C60.9947294,63.7181736 63.7627424,72.6411189 66.7269204,77.3340981 C70.6522235,83.5487607 74.8977126,82.9565035 75.0390949,83.849156 C75.223828,85.0155147 73.5184346,86.4025695 69.9229147,88.0103203 C66.3813798,82.9342827 64.1746047,79.2425511 63.3025895,76.9351253 C59.8997562,67.930941 59.1538044,61.894321 59.1258505,59.6215719 L59.1254074,59.403451 C59.1301098,58.8907417 59.1769728,58.623061 59.2341348,58.6134946 Z M77.6649881,76.3658745 C78.1611179,76.5786416 79.1826651,77.732397 79.6313501,78.1363948 C80.2588171,78.7013687 81.0238239,79.6708931 81.2830458,80.3400628 C81.6897851,81.3900417 80.9498685,82.541796 80.3166631,83.2450419 C79.2799049,84.3964785 75.8372387,85.2035099 74.9886629,83.2926213 C74.140087,81.3817328 73.4422958,79.1402716 74.479054,77.988835 C75.2272423,77.1578877 76.3786494,75.8142234 77.6649881,76.3658745 Z M82.5550402,71.1004633 C82.993105,71.6611606 83.7079244,72.5312039 83.2200724,73.2763721 C83.0319121,73.5637771 82.1959914,74.0764719 81.8932328,74.3130128 C81.4698376,74.6438054 80.7777194,75.0160884 80.3297179,75.1045944 C79.6267692,75.243467 78.9867462,74.652504 78.616004,74.1779757 C78.0089815,73.4010223 77.8836472,71.154385 79.1749366,70.8337524 C80.466226,70.5131198 81.9480177,70.3235099 82.5550402,71.1004633 Z M74.4174762,69.8435127 C74.5813059,70.0263299 74.78018,70.6979893 74.8874095,70.9506062 C75.0373655,71.3038803 75.1658836,71.8503929 75.1435281,72.176106 C75.1084505,72.6871749 74.5799027,73.0205634 74.1822176,73.1893707 C73.5310809,73.4657618 71.9524918,73.1391725 71.9715667,72.1883081 C71.9906416,71.2374436 72.135973,70.1790935 72.7871097,69.9027024 C73.2570099,69.7032416 73.9927073,69.3695139 74.4174762,69.8435127 Z M76.3163403,44.5690726 C76.3373552,44.5626451 76.6855839,44.9974858 77.2789001,45.7413061 L77.5127217,46.0344637 C79.1459839,48.0819592 82.2468819,51.9572267 85.5321917,55.5932569 L86.0262109,56.1366088 C87.2639145,57.4892109 88.5185283,58.7936365 89.7223824,59.9408833 C94.7775875,64.758384 98.7205274,65.7726086 98.88817,66.062974 C99.3311379,66.830217 98.5133601,68.25804 96.4348365,70.3464431 C90.7638028,66.3402904 87.0340731,63.1993176 85.2456473,60.9235244 C78.791124,52.7100669 76.6248007,45.9517697 76.3455662,44.756723 L76.3259829,44.666928 C76.3135296,44.6039506 76.31062,44.5708111 76.3163403,44.5690726 Z M79.9995778,62.4800819 C80.6002113,62.7730304 81.5625623,63.2116555 81.4350659,64.0876218 C81.3858917,64.4254745 80.8653687,65.2556742 80.6969438,65.6009965 C80.4614086,66.0839151 80.0097905,66.7254643 79.6571912,67.0068972 C79.1039357,67.4484873 78.3166152,67.2208191 77.8082882,66.9728915 C76.9759955,66.5669552 75.9794648,64.6518851 76.9698698,63.783181 C77.9602748,62.9144769 79.1672852,62.0741456 79.9995778,62.4800819 Z M100.078525,56.494684 C100.291929,56.8492625 100.403543,58.0237694 100.49963,58.4758272 C100.634005,59.108011 100.669263,60.0530859 100.525186,60.5848624 C100.299117,61.4192607 99.3079823,61.8027288 98.5891367,61.9555242 C97.4121583,62.2056987 94.8854772,61.163252 95.2290257,59.5961288 C95.5576374,58.0971414 96.1112185,56.4721911 97.1887723,56.1147835 L97.3389873,56.0740336 L97.6071546,56.0171183 C98.4479031,55.842239 99.580555,55.6672853 100.078525,56.494684 Z M95.1826733,51.353064 C95.6837887,51.4780061 96.4817491,51.6549503 96.5261199,52.3376165 C96.5432334,52.6009151 96.2831449,53.3121362 96.2113119,53.6002425 C96.1108565,54.003147 95.8725437,54.5606875 95.6512198,54.8300904 C95.3039454,55.2528044 94.6721946,55.2072075 94.2480915,55.1014667 C93.5537002,54.9283355 92.4926659,53.6407759 93.1017712,52.8249469 C93.7108765,52.0091179 94.488282,51.1799328 95.1826733,51.353064 Z M91.1595288,44.5660448 C91.5687619,44.6471661 92.5263787,45.355196 92.9304733,45.5885001 C93.4955825,45.914766 94.2296672,46.5247489 94.5331466,46.9889508 C95.0093292,47.7173192 94.6350594,48.7068693 94.2693905,49.3402264 C93.6706745,50.377233 91.1978914,51.5404716 90.2493744,50.2322996 C89.3008574,48.9241275 88.4132083,47.3418335 89.0119243,46.3048269 C89.4439946,45.5564593 90.0984913,44.3557179 91.1595288,44.5660448 Z M106.377806,44.2572807 C107.289214,45.2010715 107.772978,48.1516379 106.113784,48.750646 C104.454589,49.3496542 102.525349,49.8014822 101.613941,48.8576914 C100.956213,48.1765941 99.8893139,47.1244897 100.427746,46.0738942 C100.635415,45.6686884 101.666268,44.8778673 102.032424,44.5242747 C102.544478,44.0297904 103.405392,43.4439824 103.984257,43.2661922 C104.892539,42.9872257 105.821159,43.6808557 106.377806,44.2572807 Z M99.2650693,45.2666947 C99.3593282,45.4244099 99.4095213,45.9462882 99.4522271,46.1472028 C99.5119492,46.4281733 99.5283236,46.848057 99.4653825,47.0841697 C99.366623,47.4546487 98.93068,47.6241095 98.614388,47.6913394 C98.0965175,47.8014162 96.9833501,47.3360231 97.133161,46.6401355 C97.2829719,45.9442479 97.5408955,45.1874204 98.058766,45.0773436 C98.4324931,44.9979055 99.0206799,44.8577793 99.2650693,45.2666947 Z M57.2554503,34.8905112 L60.4473554,35.7871259 C61.8700331,38.2512759 60.694492,41.051576 56.9207321,44.1880263 L56.6467591,44.4126302 L51.9514346,42.7793439 C55.215537,42.5036661 56.9835423,39.8740552 57.2554503,34.8905112 Z M102.249476,39.9918035 C102.402697,40.1036785 102.660957,40.5794592 102.782607,40.7531933 C102.952729,40.9961532 103.137695,41.3886348 103.173132,41.6384472 C103.228734,42.0304221 102.882751,42.367372 102.609248,42.5588808 C102.161437,42.8724415 100.915638,42.8792074 100.777272,42.1573437 C100.638906,41.43548 100.578712,40.6120763 101.026523,40.2985156 C101.349691,40.0722309 101.852213,39.7017398 102.249476,39.9918035 Z M50.7495827,31.9052861 L53.0655462,34.2777297 C53.0655462,37.123085 50.6473477,38.9604456 45.8109507,39.7898112 L45.4613812,39.8473374 L42.211754,36.0852077 C45.1763885,37.4785149 48.0223314,36.0852077 50.7495827,31.9052861 Z M85.0570616,24.3417053 C85.1402856,24.2654127 92.4137221,30.7535228 99.7768608,32.9061108 C100.666486,33.1661896 101.557469,33.3609237 102.436534,33.5027957 C102.27767,32.4823217 102.281204,31.3523264 102.991062,30.7352565 C103.545739,30.2530833 104.409196,29.4740668 105.062265,29.7737157 C105.314148,29.8892877 105.724158,30.5351372 105.91984,30.7602433 C106.193493,31.0750447 106.484523,31.6188371 106.531434,31.9972488 C106.605041,32.5910057 106.006409,33.2559243 105.536976,33.6639962 C105.48409,33.7099694 105.424927,33.7551439 105.360538,33.7990604 C110.381747,34.0285826 114.427695,32.8575799 114.611322,33.001045 C115.216225,33.4736468 114.733686,35.2560689 113.163707,38.3483113 C105.233635,37.7986936 99.8681834,36.8316448 97.0673535,35.4471649 C88.8181573,31.3694998 84.9846968,24.4078194 85.0570616,24.3417053 Z M47.7346652,26.3800695 L49.0465956,29.4249035 C48.0269115,32.0812716 45.1108775,32.9299905 40.2984938,31.9710604 L39.9515271,31.8994911 L38.2659654,27.2226783 C40.5343735,29.5858727 43.6906068,29.305003 47.7346652,26.3800695 Z M98.8761083,22.4207765 C99.7916364,23.3688336 100.277587,26.332738 98.6108924,26.934454 C96.9441972,27.5361699 95.0062367,27.9900404 94.0907086,27.0419833 C93.4300074,26.3578071 92.3582851,25.3009466 92.8991515,24.2456019 C93.107759,23.8385645 94.1432723,23.0441684 94.5110833,22.6889774 C95.0254515,22.1922578 95.890258,21.6038017 96.4717388,21.4252078 C97.384127,21.1449803 98.3169448,21.8417458 98.8761083,22.4207765 Z M108.693408,23.1003633 C109.116557,23.4554275 109.799793,24.0007264 109.549613,24.6453197 C109.45312,24.8939338 108.901109,25.4181768 108.709385,25.6466638 C108.441268,25.9661932 107.975791,26.3606025 107.649882,26.5001209 C107.138506,26.7190359 106.557113,26.3735866 106.198994,26.0730893 C105.61264,25.5810798 105.154844,23.8953041 106.083644,23.4434056 C107.012445,22.9915072 108.107054,22.6083538 108.693408,23.1003633 Z M103.047608,17.5285603 C103.414241,17.7576581 104.002396,18.1071095 103.902426,18.595991 C103.863869,18.7845484 103.520546,19.2071268 103.407647,19.3878025 C103.249763,19.64047 102.953748,19.9619882 102.727815,20.0872764 C102.373308,20.2838632 101.889029,20.0731291 101.578741,19.8792395 C101.0707,19.5617807 100.49614,18.3629163 101.132602,17.9661961 C101.769064,17.5694758 102.539568,17.2111015 103.047608,17.5285603 Z M108.615965,11.4654136 C109.550815,11.6984978 111.03944,12.028594 111.122216,13.3021338 C111.154142,13.7933272 110.668937,15.1201372 110.53493,15.6576104 C110.347526,16.4092442 109.902945,17.4493571 109.490056,17.9519386 C108.842203,18.7405276 107.663648,18.6554648 106.872467,18.4582013 C105.577054,18.1352185 103.597654,15.7332272 104.733963,14.2112671 C105.870272,12.689307 107.320552,11.1424307 108.615965,11.4654136 Z M86.3225653,6.14824542 C86.3406612,6.10835465 86.6170303,6.12853347 87.0856306,6.18159605 L87.3893302,6.21716216 C89.8321602,6.51024107 95.9002022,7.35911341 99.5753791,6.28646935 C100.774558,5.93647485 101.818683,5.45158869 102.726398,4.90489456 C102.495868,4.79993744 102.307787,4.63166664 102.191253,4.38585476 C101.660187,3.26564194 101.212717,1.95030317 101.805528,1.26835274 C102.233336,0.776215465 102.890659,-0.0193215177 103.658003,0.299396858 C103.953962,0.422323811 104.574851,1.09640001 104.845907,1.33202547 C105.175091,1.61818088 105.57034,2.08333282 105.7758,2.45781533 C107.131619,1.07058245 107.848803,-0.0855543072 108.186685,0.00498080549 C108.999891,0.22287863 109.268631,2.25871669 108.992906,6.112495 C104.485024,7.98250098 101.046844,8.93067917 98.6783673,8.95702958 C92.7246825,9.02326711 86.2207593,6.37349135 86.3225653,6.14824542 Z" id="Brown-spots" fill="#E3A15C"></path>
                    <path d="M6.10349302,72.7080859 C15.1051787,76.1827841 20.432338,82.3308527 22.0849711,91.1522916 L23.0446206,91.1522916 C21.9700156,82.2343031 16.6816653,75.7845381 7.17956975,71.8029967 L7.93452882,70.8537833 C17.3674352,74.609636 22.839779,81.1899594 24.3515602,90.5947536 L24.5124251,87.5103197 C23.2684,79.7243349 17.9580355,73.7392149 8.58133164,69.5549596 L9.06698733,68.5179395 C15.1736694,71.2260139 19.7689062,75.0999714 22.8526978,80.1398122 C23.2835018,79.5092974 23.1819866,78.7588686 22.548152,77.8885257 C21.3108625,76.1895555 19.993307,74.6196522 17.9793788,72.8276826 C15.3594242,70.4964778 11.8568231,68.6675069 9.10574652,67.4080215 L6.10349302,72.7080859 Z" id="Head" fill="#E3A15C" transform="translate(15.307959, 79.280157) rotate(-186.000000) translate(-15.307959, -79.280157) "></path>
                </g>
                <path d="M112.478353,79.9203633 C114.380946,79.787321 116.284314,73.9900786 119.73925,69.7377532 C121.689442,67.337463 124.562337,65.7485207 127.314897,62.3539636 C129.149938,60.0909255 131.206656,57.7074471 133.485052,55.2035285 C135.687508,57.3059984 137.108724,60.5782203 137.7487,65.020194 C138.388675,69.4621677 136.967459,74.288984 133.485052,79.5006429 C133.137142,81.0231106 133.508421,82.3054663 134.598889,83.3477101 C135.362387,84.0774445 137.446266,84.2202462 139.41544,81.892974 C139.977641,81.2285366 140.692321,79.6376982 141.55948,77.1204587 C146.345232,78.6269981 150.126178,81.2888513 152.902316,85.1060186 C155.678455,88.9231858 157.255026,93.5517756 157.632031,98.9917881 C154.837585,99.1928319 153.440362,100.175251 153.440362,101.939045 C153.440362,103.702839 154.49646,105.053617 156.608655,105.99138 C160.731767,107.141001 162.042511,109.729059 160.540886,113.755553 C159.740322,115.902207 157.443079,119.380784 154.519403,120.84151 C151.959119,122.120678 150.498229,122.138494 144.831466,122.215108 C139.164703,122.291722 136.629081,121.153554 133.485052,121.125891 C128.21587,121.079531 124.770345,122.044775 122.164325,121.840498 C120.735269,121.728479 115.988434,119.643548 110.662915,118.970037 C104.397682,118.177683 97.4037117,118.833432 95.129046,119.530781 C93.0137476,120.179273 89.828697,122.888695 90.7674688,125.348582 C91.3423117,126.854857 92.7961708,127.294858 95.129046,126.668585 C99.4685953,124.073384 103.862151,123.309924 108.309713,124.378205 C111.229894,125.079616 117.86649,128.3249 121.104127,134.149011 C121.531098,134.91708 122.478711,136.765018 123.170704,138.867359 C121.909677,137.722536 120.372576,137.061153 118.559399,136.883211 C116.746223,136.705268 115.338465,137.020824 114.336126,137.829876 C112.671444,135.041339 110.675817,132.941858 108.631525,132.043121 C105.438118,130.639194 102.170325,130.727417 98.8281476,132.307791 C97.2720438,133.203633 96.7169786,134.396713 97.1629518,135.887031 C97.608925,137.37735 98.9641008,137.987417 101.228479,137.717232 C102.662083,136.984077 104.20069,136.859848 105.844299,137.344548 C106.841461,137.63861 108.789113,138.53709 110.292927,140.830187 C110.480351,141.115982 110.67459,141.486222 110.880628,141.916835 C111.348064,142.893767 114.926633,139.873766 118.559399,141.03896 C122.861911,142.418971 127.313952,147.845604 127.80847,146.804196 C128.403524,145.55107 128.753231,144.22005 128.753231,143.01658 C128.753231,138.354424 126.331428,133.038683 121.487822,127.069357 C126.624272,126.15534 130.623349,125.729577 133.485052,125.792067 C135.750685,125.841541 141.46891,127.053608 147.196857,127.069357 C149.609822,127.075992 155.393918,126.379264 159.26124,123.21822 C163.60699,119.666122 166.053583,114.001834 166.053583,108.827165 C166.053583,105.377385 164.921371,102.502839 162.656946,100.203525 C162.75484,92.7202267 160.738743,86.4461447 156.608655,81.3812791 C152.478567,76.3164136 147.86738,73.0837054 142.775096,71.6831546 C142.803998,65.731459 142.398793,61.4592717 141.55948,58.8665926 C140.720166,56.2739135 138.811702,53.3990655 135.834088,50.2420487 C135.008934,45.7730138 134.463701,43.3156132 134.198387,42.8698468 C133.933073,42.4240804 133.695295,43.5659039 133.485052,46.2953173 C131.820812,41.342515 130.858787,38.8025715 130.598975,38.6754868 C130.339163,38.5484022 130.63388,40.7619373 131.483125,45.3160922 C130.673147,43.0750578 130.175731,42.2596427 129.990879,42.8698468 C129.806027,43.480051 129.806027,45.9374516 129.990879,50.2420487 C128.816844,53.262348 126.726189,56.2818195 123.718912,59.3004631 C120.711635,62.3191067 117.184895,66.0533306 113.138692,70.5031348 C75.07287,78.3523566 52.9166209,98.3200138 46.6699445,130.406106 C39.4404353,179.430934 77.381458,206.941589 79.3598257,208.242743 C89.767525,215.087794 94.8522825,217.01831 95.9070247,216.801782 L94.0040496,207.475167 C85.525418,205.719669 76.4030138,198.829467 66.6368368,186.804561 C51.9875714,168.767201 51.6525841,148.354645 51.6525841,138.888401 C51.6525841,118.618833 62.9487249,103.819081 70.2484435,96.6491296 C83.852248,83.2871594 105.809818,78.1550003 110.124106,77.5951939 C109.709244,79.2840668 110.493993,80.0591232 112.478353,79.9203633 Z" id="Rio-stroke" fill="#131415" transform="translate(105.904441, 127.744066) rotate(180.000000) translate(-105.904441, -127.744066) "></path>
                <g id="Tokyo-details" transform="translate(75.718366, 88.135316) rotate(26.000000) translate(-75.718366, -88.135316) translate(27.933604, 13.381978)">
                    <path d="M60.4672417,29.0754216 C57.1380338,26.1811803 53.1982085,25.1003544 48.6477658,25.8329439 C41.8221018,26.9318281 42.0976243,24.3835856 39.9834652,29.0754216 C37.869306,33.7672576 32.0075037,38.0272593 34.6647866,38.1194041 C36.1624036,36.4498442 44.0154566,36.6853926 48.6477658,39.9062158 C53.280075,43.1270389 56.3587347,45.1661377 60.4672417,42.235021 C64.5757488,39.3039043 64.6738407,30.696993 64.1911601,31.1149581 C63.8693731,31.3936016 62.6280669,30.713756 60.4672417,29.0754216 Z M93.7876495,26.1940681 C87.6640778,12.9619181 84.6022919,4.23056203 84.6022919,1.9676802e-14 C80.4741565,1.9676802e-14 75.2932552,6.06323215 73.0355271,8.77721752 C70.7777989,11.4912029 90.2238978,33.5011845 93.7876495,30.4422394 C96.1634839,28.4029427 96.1634839,26.9868856 93.7876495,26.1940681 Z" id="Black-spots" fill="#000000" transform="translate(64.777939, 21.825008) scale(-1, 1) translate(-64.777939, -21.825008) "></path>
                    <path d="M41.4267878,125.334266 C44.6099236,129.322819 43.9978911,133.30471 41.8080558,136.017839 C44.1931728,138.412932 45.6726211,141.767691 43.4293226,145.704134 C40.7991838,150.319388 36.2291208,150.214839 33.2270936,148.128992 C30.2960729,146.092482 29.8965297,141.365852 31.759518,138.232902 C30.0264517,137.483975 28.4618848,136.280518 27.3949363,134.781855 C24.7274628,131.035054 23.5481027,125.915482 27.6917498,123.574116 C31.835397,121.232749 37.3309827,120.202114 41.4267878,125.334266 Z M13.6784575,110.926046 C17.9646635,110.299055 23.0410854,111.266247 25.0946745,117.102721 C27.1482636,122.939196 23.7463549,126.638564 19.7809776,127.469103 C15.8156004,128.299642 11.3536488,124.69457 10.1347648,120.542842 C8.91588077,116.391114 9.3922514,111.553037 13.6784575,110.926046 Z M17.7347743,85.6824144 C19.718262,81.6798829 19.0875155,76.1161187 13.1668138,73.7201158 C7.24611204,71.3241128 3.12133933,75.0001541 0.76595225,79.1334472 C-1.58943483,83.2667404 1.87235658,87.126553 5.9234234,89.0389829 C9.97449021,90.9514129 15.7512867,89.684946 17.7347743,85.6824144 Z M15.1088351,64.6836288 C21.0807512,68.7450796 30.1374178,68.9983555 35.2970826,60.1160556 C40.4567474,51.2337558 35.4854388,43.8378948 29.3868898,39.1549614 C23.2883408,34.472028 16.3311074,39.1098264 12.3632137,45.1255841 C8.39532005,51.1413419 9.13691902,60.622178 15.1088351,64.6836288 Z M63.2396824,72.4806337 C67.4757927,71.933415 72.6945179,73.628504 73.825215,78.4532587 C74.955912,83.2780133 70.6100692,85.4499999 66.1748584,86.2376994 C61.7396476,87.025399 58.7170342,83.6573196 57.6811662,80.2953746 C56.6452982,76.9334296 59.003572,73.0278524 63.2396824,72.4806337 Z M72.0560921,17.3929449 L72.6327693,17.5429277 C76.5704309,18.5856005 80.4046985,19.9760118 81.5160613,20.670448 C87.4085883,24.3523991 89.1026381,28.3710455 89.1026381,30.503533 C89.1026381,31.9251913 88.5379548,33.4001037 87.4085883,34.9282701 C84.5343203,30.6180553 82.086393,28.3504835 80.0648062,28.1255548 C76.5810511,27.7379403 71.6868612,29.601665 68.8583485,30.503533 C64.2794331,31.9635148 61.7096586,31.3011616 60.4970252,30.503533 C54.9604309,26.8617516 63.3057623,19.2184555 62.797203,18.312096 C61.1438904,15.3655458 66.576424,15.9939931 72.0560921,17.3929449 Z M55.3150979,7.41002204 C57.0169404,11.6418705 58.4868661,14.9779875 59.724875,17.4183731 C61.5247494,20.9663184 56.1730857,22.665788 49.8764505,24.3921276 L49.2741125,24.5566821 C42.7221349,26.3415363 47.5627631,20.2554154 51.3757424,17.5137858 C53.9177286,15.6860328 55.2308471,12.3181115 55.3150979,7.41002204 Z" id="Orange-spots" fill="#FF6C00" fill-rule="nonzero"></path>
                </g>
                <path d="M32.8366514,140.976595 C41.6761643,137.826288 45.2012517,133.591579 43.4119137,128.272466 C41.6225757,122.953353 36.0042426,120.833787 26.5569145,121.913769 C26.1446463,120.724898 25.7006797,118.396303 25.2250147,114.927985 C24.7493497,111.459668 24.7493497,108.839749 25.2250147,107.068231 C45.535684,111.759268 56.5571608,110.268511 58.2894452,102.59596 C60.0217296,94.9234088 50.9740565,87.89733 31.1464261,81.5177235 C31.4603355,79.7421274 32.453705,77.4515014 34.1265346,74.6458455 C35.7993643,71.8401896 37.0642911,70.0516007 37.9213151,69.2800788 C47.8956492,76.4331429 55.13484,77.0719945 59.6388875,71.1966334 C63.0321397,66.7702633 61.3342631,60.6930547 54.5452578,52.9650077 C60.4817354,49.1089045 65.0638758,46.5378902 68.2916791,45.2519648 C71.5194824,43.9660394 76.2764523,42.816443 82.5625889,41.8031757 C83.1480709,43.1539835 84.0407792,43.8293874 85.2407139,43.8293874 C86.1017772,43.8293874 93.3182746,38.7214805 100.292397,31.1975727 C102.122173,29.223551 104.240603,26.1285125 106.647685,21.9124572 C108.850141,24.0149271 110.271357,27.287149 110.911333,31.7291227 C111.551308,36.1710964 110.130092,40.9979127 106.647685,46.2095716 C106.299776,47.7320393 106.671055,49.014395 107.761522,50.0566388 C108.52502,50.7863732 110.608899,50.9291749 112.578074,48.6019027 C113.140274,47.9374653 113.854954,46.3466269 114.722113,43.8293874 C119.507865,45.3359267 123.288811,47.99778 126.064949,51.8149473 C128.841088,55.6321145 130.417659,60.2607043 130.794665,65.7007168 C128.000219,65.9017606 126.602996,66.8841795 126.602996,68.6479736 C126.602996,70.4117676 127.659093,71.7625458 129.771288,72.7003082 C133.8944,73.84993 135.205144,76.4379879 133.703519,80.4644819 C132.902955,82.6111354 130.605713,86.089713 127.682037,87.5504387 C125.121752,88.8296072 123.660368,88.8474295 117.994099,88.9240366 C112.32783,89.0006437 109.791715,87.8624826 106.647685,87.83482 C101.378503,87.7884593 97.9329784,88.7537037 95.3269583,88.5494266 C93.8979018,88.4374077 89.1510666,86.3524763 83.825548,85.678966 C77.5603147,84.8866115 70.5663448,85.5423605 68.2916791,86.23971 C66.1763807,86.8882019 62.9913301,89.5976233 63.9301019,92.0575103 C64.5049449,93.5637857 65.9588039,94.0037867 68.2916791,93.3775136 C72.6312285,90.7823131 77.0247841,90.0188529 81.4723459,91.0871332 C84.3925276,91.788545 91.0291231,95.0338282 94.2667601,100.85794 C95.3160104,102.745412 99.5093889,111.154159 95.3269583,113.834017 C91.1445276,116.513874 89.7149793,109.056875 89.0431312,107.539116 C87.1595172,103.283879 84.5201021,99.9504638 81.7941584,98.7520495 C78.6007508,97.3481227 75.3329582,97.4363461 71.9907807,99.0167198 C70.434677,99.9125613 69.8796117,101.105641 70.3255849,102.59596 C70.7715581,104.086279 72.1267339,104.696346 74.3911122,104.426161 C75.8247162,103.693005 77.3633228,103.568777 79.006932,104.053476 C80.0040937,104.347539 81.9517463,105.246019 83.4555602,107.539116 C84.5717939,109.24121 85.9297351,113.938547 88.582312,116.546298 C91.1916286,119.11152 95.0901499,118.850828 96.8815451,117.986497 C99.6725864,116.639847 101.915864,112.773577 101.915864,109.725509 C101.915864,105.063353 99.4940612,99.7476117 94.6504551,93.7782859 C99.7869051,92.8642689 103.785982,92.4385054 106.647685,92.5009954 C108.913318,92.5504693 114.631543,93.7625367 120.35949,93.7782859 C122.772455,93.7849204 128.556551,93.0881929 132.423873,89.9271487 C136.769623,86.3750508 139.216216,80.7107632 139.216216,75.5360938 C139.216216,72.0863141 138.084004,69.2117675 135.819579,66.912454 C135.917473,59.4291554 133.901377,53.1550734 129.771288,48.0902078 C125.6412,43.0253423 121.030014,39.7926341 115.937729,38.3920833 C115.966631,32.4403877 115.561426,28.1682004 114.722113,25.5755213 C113.882799,22.9828422 111.974335,20.1079942 108.996721,16.9509774 C108.171567,12.4819425 107.626334,10.0245419 107.36102,9.57877552 C107.095707,9.13300913 106.857928,10.2748326 106.647685,13.004246 C104.983446,8.05144369 104.02142,5.5115002 103.761608,5.38441553 C103.501796,5.25733085 103.796513,7.47086598 104.645758,12.0250209 C103.83578,9.7839865 103.338364,8.96857137 103.153512,9.57877552 C102.96866,10.1889797 102.96866,12.6463803 103.153512,16.9509774 C101.979477,19.9712767 99.8888217,22.9907482 96.8815451,26.0093918 C93.8742686,29.0280354 90.5939588,31.9466859 87.0406159,34.7653433 C48.1101461,42.7748148 25.8810434,63.0595674 20.3533076,95.6196012 C14.3114857,148.298739 51.4457742,172.827982 61.8521638,180.45438 L63.2385526,175.363905 C53.163061,167.879029 46.3205192,161.757601 42.7109272,156.999622 C39.1013352,152.241642 35.8099099,146.900633 32.8366514,140.976595 Z" id="Tokyo-stroke" fill="#131415"></path>
            </g>
        </g>
        <path d="M821.457855,275.960623 C825.67654,275.967266 829.310588,276.027059 832.36,276.14 C835.6,276.26 838.4,276.68 840.76,277.4 C843.12,278.12 845.16,279.2 846.88,280.64 C848.6,282.08 850.18,284.12 851.62,286.76 L851.62,286.76 L866.02,313.04 L876.7,285.44 L876.813437,285.144688 C877.062812,284.466563 877.205,283.865 877.24,283.34 C877.28,282.74 877.3,282.24 877.3,281.84 C877.3,280.72 877.1,279.82 876.7,279.14 C876.3,278.46 875.82,277.96 875.26,277.64 C874.7,277.32 874.1,277.12 873.46,277.04 C872.82,276.96 872.26,276.92 871.78,276.92 L871.78,276.92 L869.38,276.92 L869.38,275.96 L890.62,275.96 L890.62,276.92 L889.06,276.92 L888.649333,276.923467 C886.757778,276.955822 885.214667,277.214667 884.02,277.7 C882.74,278.22 881.7,278.9 880.9,279.74 C880.1,280.58 879.48,281.48 879.04,282.44 C878.6,283.4 878.22,284.32 877.9,285.2 L877.9,285.2 L852.22,350 L851.994167,350.515 C851.144722,352.385 850.06,354.053333 848.74,355.52 C847.3,357.12 845.74,358.46 844.06,359.54 C842.38,360.62 840.66,361.44 838.9,362 C837.14,362.56 835.54,362.84 834.1,362.84 C832.74,362.84 831.4,362.58 830.08,362.06 C828.76,361.54 827.58,360.8 826.54,359.84 C825.5,358.88 824.66,357.74 824.02,356.42 C823.38,355.1 823.06,353.64 823.06,352.04 C823.06,350.52 823.36,349.08 823.96,347.72 C824.56,346.36 825.38,345.18 826.42,344.18 C827.46,343.18 828.66,342.38 830.02,341.78 C831.38,341.18 832.82,340.88 834.34,340.88 C836.34,340.88 838.18,341.38 839.86,342.38 C841.54,343.38 842.82,344.84 843.7,346.76 L843.7,346.76 L845.74,351.2 L845.860469,351.403437 C846.465156,352.387812 847.105,352.88 847.78,352.88 C848.34,352.88 848.9,352.54 849.46,351.86 C850.02,351.18 850.5,350.52 850.9,349.88 L850.9,349.88 L855.58,338 L855.463945,337.782215 C854.828374,336.588581 853.927059,334.881176 852.76,332.66 C851.52,330.3 850.08,327.58 848.44,324.5 C846.8,321.42 845.02,318.1 843.1,314.54 C841.18,310.98 839.22,307.44 837.22,303.92 C835.22,300.4 833.24,297.02 831.28,293.78 C829.32,290.54 827.48,287.66 825.76,285.14 C824.04,282.62 822.48,280.62 821.08,279.14 C819.68,277.66 818.58,276.92 817.78,276.92 L817.78,276.92 L816.94,276.92 L816.94,275.96 Z M780.7,274.16 L781.281653,274.160992 C783.195702,274.167603 784.861818,274.207273 786.28,274.28 C787.84,274.36 789.4,274.62 790.96,275.06 C792.52,275.5 794.2,276.16 796,277.04 C797.8,277.92 799.98,279.2 802.54,280.88 C805.9,283.04 808.76,286.3 811.12,290.66 C813.48,295.02 814.66,300.32 814.66,306.56 C814.66,312.8 813.48,318.12 811.12,322.52 C808.76,326.92 805.9,330.16 802.54,332.24 C799.98,333.92 797.8,335.2 796,336.08 C794.2,336.96 792.52,337.62 790.96,338.06 C789.4,338.5 787.84,338.76 786.28,338.84 C784.861818,338.912727 783.195702,338.952397 781.281653,338.959008 L781.281653,338.959008 L779.5,338.96 L778.8598,338.9588 C776.9626,338.9516 775.276,338.912 773.8,338.84 C772.16,338.76 770.5,338.5 768.82,338.06 C767.14,337.62 765.36,336.96 763.48,336.08 C761.6,335.2 759.38,333.92 756.82,332.24 C753.46,330.16 750.6,326.92 748.24,322.52 C745.88,318.12 744.7,312.8 744.7,306.56 C744.7,300.32 745.88,295.02 748.24,290.66 C750.6,286.3 753.46,283.04 756.82,280.88 C759.38,279.2 761.58,277.92 763.42,277.04 C765.26,276.16 766.96,275.5 768.52,275.06 C770.08,274.62 771.64,274.36 773.2,274.28 C774.76,274.2 776.62,274.16 778.78,274.16 L778.78,274.16 L780.7,274.16 Z M923.02,274.04 C925.98,274.04 928.98,274.32 932.02,274.88 C935.06,275.44 937.82,276.4 940.3,277.76 C942.78,279.12 944.82,281.02 946.42,283.46 C948.02,285.9 948.82,288.96 948.82,292.64 L948.82,292.64 L948.82,337.04 L957.7,337.04 L957.7,338 L926.74,338 L926.74,330.56 L925.9,331.04 L925.084793,331.497686 C922.340992,333.021653 919.332727,334.529091 916.06,336.02 C912.46,337.66 908.9,338.48 905.38,338.48 L905.38,338.48 L904.78,338.48 L904.32281,338.472066 C902.802149,338.419174 901.314545,338.101818 899.86,337.52 C898.26,336.88 896.82,335.96 895.54,334.76 C894.26,333.56 893.24,332.08 892.48,330.32 C891.72,328.56 891.34,326.56 891.34,324.32 C891.34,323.04 891.54,321.8 891.94,320.6 C892.34,319.4 892.86,318.28 893.5,317.24 C893.98,316.44 894.74,315.54 895.78,314.54 C896.82,313.54 897.98,312.56 899.26,311.6 C900.54,310.64 901.88,309.7 903.28,308.78 C904.68,307.86 906.06,307.04 907.42,306.32 C910.46,304.56 913.68,302.84 917.08,301.16 C920.48,299.48 923.7,297.84 926.74,296.24 L926.74,296.24 L926.74,293.24 L926.732653,292.348571 C926.703265,290.565714 926.585714,288.782857 926.38,287 C926.14,284.92 925.58,283.04 924.7,281.36 C923.82,279.68 922.56,278.32 920.92,277.28 C919.28,276.24 917.1,275.72 914.38,275.72 C913.42,275.72 912.44,275.78 911.44,275.9 C910.44,276.02 909.5,276.28 908.62,276.68 C907.9,277 907.24,277.5 906.64,278.18 C906.04,278.86 905.74,279.64 905.74,280.52 C905.74,281.72 906.2,282.68 907.12,283.4 C908.04,284.12 909.08,284.84 910.24,285.56 C911.4,286.28 912.44,287.12 913.36,288.08 C914.28,289.04 914.74,290.28 914.74,291.8 C914.74,294.36 913.88,296.36 912.16,297.8 C910.44,299.24 908.46,299.96 906.22,299.96 C904.86,299.96 903.52,299.7 902.2,299.18 C900.88,298.66 899.68,297.92 898.6,296.96 C897.52,296 896.64,294.88 895.96,293.6 C895.28,292.32 894.94,290.92 894.94,289.4 C894.94,286.12 895.92,283.48 897.88,281.48 C899.84,279.48 902.26,277.92 905.14,276.8 C908.02,275.68 911.08,274.94 914.32,274.58 C917.56,274.22 920.46,274.04 923.02,274.04 Z M636.82,254 L637.541481,254.034074 C639.469383,254.144691 641.428889,254.413333 643.42,254.84 C645.34,255.24 647.46,255.94 649.78,256.94 C652.1,257.94 654.38,259.32 656.62,261.08 C658.86,263.08 660.94,265.56 662.86,268.52 C664.78,271.48 666.58,274.64 668.26,278 C669.94,281.36 671.48,284.76 672.88,288.2 C674.28,291.64 675.56,294.86 676.72,297.86 C677.88,300.86 678.94,303.5 679.9,305.78 C680.86,308.06 681.7,309.64 682.42,310.52 L682.42,310.52 L702.46,254 L741.22,254 L741.22,254.96 L729.22,254.96 L729.22,337.04 L741.22,337.04 L741.22,338 L690.34,338 L690.34,337.04 L702.34,337.04 L702.34,257.12 L673.66,338 L672.58,338 L672.407883,337.994872 C670.852628,337.902577 669.13,336.564286 667.24,333.98 C665.28,331.3 663.22,327.82 661.06,323.54 C658.9,319.26 656.64,314.44 654.28,309.08 C651.92,303.72 649.54,298.38 647.14,293.06 C644.74,287.74 642.34,282.68 639.94,277.88 C637.54,273.08 635.22,269.08 632.98,265.88 L632.98,265.88 L632.98,331.28 L632.986563,331.577187 C633.052188,333.049063 633.61,334.31 634.66,335.36 C635.78,336.48 637.14,337.04 638.74,337.04 L638.74,337.04 L646.9,337.04 L646.9,338 L618.22,338 L618.22,337.04 L626.26,337.04 L626.557188,337.033437 C628.029063,336.967812 629.29,336.41 630.34,335.36 C631.46,334.24 632.02,332.88 632.02,331.28 L632.02,331.28 L632.02,264.56 L631.5904,264.0416 C631.0208,263.3632 630.464,262.736 629.92,262.16 C629.24,261.44 628.58,260.84 627.94,260.36 C625.94,259 624.08,257.94 622.36,257.18 C620.64,256.42 619.1,255.88 617.74,255.56 C616.22,255.24 614.82,255.04 613.54,254.96 L613.54,254.96 L613.54,254 L636.82,254 Z M779.74,275.12 C779.26,275.12 778.54,275.28 777.58,275.6 C776.62,275.92 775.3,277.04 773.62,278.96 C772.74,279.92 772.02,281.32 771.46,283.16 C770.9,285 770.46,287.14 770.14,289.58 C769.82,292.02 769.62,294.68 769.54,297.56 C769.46,300.44 769.42,303.44 769.42,306.56 C769.42,309.68 769.46,312.68 769.54,315.56 C769.62,318.44 769.82,321.1 770.14,323.54 C770.46,325.98 770.9,328.12 771.46,329.96 C772.02,331.8 772.74,333.24 773.62,334.28 C774.74,335.48 775.88,336.4 777.04,337.04 C778.2,337.68 779.1,338 779.74,338 L779.74,338 L780.7,338 C782.86,338 784.78,336.8 786.46,334.4 C787.18,333.36 787.78,331.9 788.26,330.02 C788.74,328.14 789.12,325.98 789.4,323.54 C789.68,321.1 789.86,318.44 789.94,315.56 C790.02,312.68 790.06,309.68 790.06,306.56 C790.06,303.44 790,300.44 789.88,297.56 C789.76,294.68 789.56,292.02 789.28,289.58 C789,287.14 788.58,285 788.02,283.16 C787.46,281.32 786.74,279.92 785.86,278.96 C784.1,277.04 782.76,275.92 781.84,275.6 C780.92,275.28 780.22,275.12 779.74,275.12 Z M926.74,297.44 L926.336686,297.630651 C924.734793,298.417396 923.269231,299.493846 921.94,300.86 C920.5,302.34 919.28,304 918.28,305.84 C917.28,307.68 916.5,309.66 915.94,311.78 C915.38,313.9 915.1,316 915.1,318.08 L915.1,318.08 L915.1,325.52 L915.107031,325.804297 C915.177344,327.222266 915.775,328.5875 916.9,329.9 C918.1,331.3 919.42,332 920.86,332 C921.42,332 921.94,331.88 922.42,331.64 L922.42,331.64 L924.186667,330.756667 C924.315556,330.692222 924.446667,330.626667 924.58,330.56 C925.38,330.16 926.1,329.76 926.74,329.36 L926.74,329.36 L926.74,297.44 Z" id="Combined-Shape" fill="#FFFFFF"></path>
    </g>
</svg>