<?xml version="1.0" encoding="UTF-8"?>
<svg width="1500px" height="500px" viewBox="0 0 1500 500" version="1.1" xmlns="http://www.w3.org/2000/svg" xmlns:xlink="http://www.w3.org/1999/xlink">
    <title>Header Photo</title>
    <g id="Header-Photo" stroke="none" stroke-width="1" fill="none" fill-rule="evenodd">
        <path d="M192.5,-22.8783414 C147.5,4.48055288 127.666667,40.44 133,85 C141,151.84 160,140.029281 160,195.01464 C160,250 153,273.133444 133,326.566722 C113,380 139,398 140,449 C141,500 126,540.321606 113,558.69359 C104.333333,570.941579 42.1014662,570.941579 -73.6956014,558.69359 L-73.6956014,-59.52 L224,-45.5 L192.5,-22.8783414 Z" id="Path-6" fill="#FF6C00"></path>
        <path d="M1394.5,-22.8783414 C1396.37038,-19.5461138 1379.20371,-2.76 1343,27.48 C1288.69443,72.84 1287.99577,137.757579 1315.99577,222.575652 C1343.99577,307.393725 1383,307 1363,380 C1343,453 1335,465.825455 1335,527.927982 C1335,569.329667 1456.43288,590.315982 1699.29864,590.886927 L1649.19248,181 L1589,-62 L1394.5,-22.8783414 Z" id="Path-7" fill="#FF6C00"></path>
        <path d="M-19.0483642,239 C47.0430852,239.834655 86.7258733,244.834655 100,254 C142.650976,283.449087 120.728725,349.776303 133,380 C160,446.5 160,445.851383 133,500 C115,536.099078 86.0503287,572.550546 46.150986,609.354405 L-73.6956014,567.879581 L-73.6956014,369.5 L-19.0483642,239 Z" id="Path-8" fill="#000000"></path>
        <path d="M1252.68596,-33 C1221.10468,8.36 1213.20936,43.36 1229,72 C1252.68596,114.96 1313.61114,97.6381828 1361.30557,138.84 C1409,180.041817 1454,119.64 1473.5,95.4 C1493,71.16 1468.5,57.74 1491,20 C1506,-5.16 1525,-40.4933333 1548,-86 L1252.68596,-33 Z" id="Path-9" fill="#000000"></path>
        <path d="M1522.5,288.530401 C1467.03243,280.316198 1437.0822,295.424247 1432.64932,333.854548 C1426,391.5 1399,384 1436.5,424 C1461.5,450.666667 1512.33333,476 1589,500 L1565,333.854548 L1522.5,288.530401 Z" id="Path-10" fill="#000000"></path>
        <path d="M496.74,239 C506.02,239.16 514.34,237.88 521.7,235.16 C524.82,233.96 527.88,232.4 530.88,230.48 C533.88,228.56 536.56,226.1 538.92,223.1 C541.28,220.1 543.18,216.52 544.62,212.36 C546.06,208.2 546.78,203.32 546.78,197.72 C546.78,192.04 546.06,187.06 544.62,182.78 C543.18,178.5 541.3,174.82 538.98,171.74 C536.66,168.66 534.02,166.1 531.06,164.06 C528.1,162.02 525.06,160.4 521.94,159.2 C514.58,156.32 506.3,154.92 497.1,155 L497.1,155 L452.58,155 L452.58,155.96 L464.58,155.96 L464.58,238.04 L452.58,238.04 L452.58,239 L496.74,239 Z M496.74,238.04 L491.7,238.04 L491.7,155.96 L497.1,155.96 C501.18,156.12 504.82,157.52 508.02,160.16 C509.38,161.28 510.72,162.74 512.04,164.54 C513.36,166.34 514.52,168.6 515.52,171.32 C516.52,174.04 517.34,177.24 517.98,180.92 C518.62,184.6 518.94,188.88 518.94,193.76 L518.94,193.76 L518.94,200.12 C518.94,204.84 518.62,209.02 517.98,212.66 C517.34,216.3 516.5,219.46 515.46,222.14 C514.42,224.82 513.22,227.06 511.86,228.86 C510.5,230.66 509.14,232.16 507.78,233.36 C504.58,236.16 500.9,237.72 496.74,238.04 L496.74,238.04 Z M564.66,239.48 C568.18,239.48 571.74,238.66 575.34,237.02 C578.94,235.38 582.22,233.72 585.18,232.04 L585.18,232.04 L586.02,231.56 L586.02,239 L616.98,239 L616.98,238.04 L608.1,238.04 L608.1,193.64 C608.1,189.96 607.3,186.9 605.7,184.46 C604.1,182.02 602.06,180.12 599.58,178.76 C597.1,177.4 594.34,176.44 591.3,175.88 C588.26,175.32 585.26,175.04 582.3,175.04 C579.74,175.04 576.84,175.22 573.6,175.58 C570.36,175.94 567.3,176.68 564.42,177.8 C561.54,178.92 559.12,180.48 557.16,182.48 C555.2,184.48 554.22,187.12 554.22,190.4 C554.22,191.92 554.56,193.32 555.24,194.6 C555.92,195.88 556.8,197 557.88,197.96 C558.96,198.92 560.16,199.66 561.48,200.18 C562.8,200.7 564.14,200.96 565.5,200.96 C567.74,200.96 569.72,200.24 571.44,198.8 C573.16,197.36 574.02,195.36 574.02,192.8 C574.02,191.28 573.56,190.04 572.64,189.08 C571.72,188.12 570.68,187.28 569.52,186.56 C568.36,185.84 567.32,185.12 566.4,184.4 C565.48,183.68 565.02,182.72 565.02,181.52 C565.02,180.64 565.32,179.86 565.92,179.18 C566.52,178.5 567.18,178 567.9,177.68 C568.78,177.28 569.72,177.02 570.72,176.9 C571.72,176.78 572.7,176.72 573.66,176.72 C576.38,176.72 578.56,177.24 580.2,178.28 C581.84,179.32 583.1,180.68 583.98,182.36 C584.86,184.04 585.42,185.92 585.66,188 C585.9,190.08 586.02,192.16 586.02,194.24 L586.02,194.24 L586.02,197.24 C582.98,198.84 579.76,200.48 576.36,202.16 C572.96,203.84 569.74,205.56 566.7,207.32 C565.34,208.04 563.96,208.86 562.56,209.78 C561.16,210.7 559.82,211.64 558.54,212.6 C557.26,213.56 556.1,214.54 555.06,215.54 C554.02,216.54 553.26,217.44 552.78,218.24 C552.14,219.28 551.62,220.4 551.22,221.6 C550.82,222.8 550.62,224.04 550.62,225.32 C550.62,227.56 551,229.56 551.76,231.32 C552.52,233.08 553.54,234.56 554.82,235.76 C556.1,236.96 557.54,237.88 559.14,238.52 C560.74,239.16 562.38,239.48 564.06,239.48 L564.06,239.48 L564.66,239.48 Z M580.14,233 C578.7,233 577.38,232.3 576.18,230.9 C574.98,229.5 574.38,228.04 574.38,226.52 L574.38,226.52 L574.38,219.08 C574.38,217 574.66,214.9 575.22,212.78 C575.78,210.66 576.56,208.68 577.56,206.84 C578.56,205 579.78,203.34 581.22,201.86 C582.66,200.38 584.26,199.24 586.02,198.44 L586.02,198.44 L586.02,230.36 C585.38,230.76 584.66,231.16 583.86,231.56 L583.86,231.56 L581.7,232.64 C581.22,232.88 580.7,233 580.14,233 Z M659.46,239 L659.46,238.04 L650.46,238.04 L650.46,194.72 C650.46,193.76 650.54,192.56 650.7,191.12 C650.86,189.68 651.12,188.22 651.48,186.74 C651.84,185.26 652.26,183.88 652.74,182.6 C653.22,181.32 653.82,180.32 654.54,179.6 C655.1,178.96 655.7,178.42 656.34,177.98 C656.98,177.54 657.66,177.32 658.38,177.32 C659.1,177.32 659.84,177.42 660.6,177.62 C661.36,177.82 661.98,178.2 662.46,178.76 C663.34,179.96 663.96,181.36 664.32,182.96 C664.68,184.56 664.86,186.16 664.86,187.76 L664.86,187.76 L664.86,221.12 C664.86,223.6 665.22,225.92 665.94,228.08 C666.66,230.24 667.86,232.14 669.54,233.78 C671.22,235.42 673.4,236.7 676.08,237.62 C678.76,238.54 682.06,239 685.98,239 L685.98,239 L696.54,239 L696.54,238.04 C693.9,238.04 692.04,236.66 690.96,233.9 C689.88,231.14 689.34,227.4 689.34,222.68 L689.34,222.68 L689.34,187.4 C689.34,186.44 689.2,185.5 688.92,184.58 C688.64,183.66 688.3,182.76 687.9,181.88 C686.78,179.48 685.18,177.6 683.1,176.24 C681.02,174.88 678.62,174 675.9,173.6 C673.18,173.2 670.62,173 668.22,173 C665.82,173 663.56,173.36 661.44,174.08 C659.32,174.8 657.3,175.96 655.38,177.56 C654.18,178.44 653.22,179.32 652.5,180.2 C651.78,181.08 651.1,182.2 650.46,183.56 L650.46,183.56 L650.46,174.44 C648.78,174.92 646.52,175.32 643.68,175.64 C640.84,175.96 637.82,176.22 634.62,176.42 C631.42,176.62 628.22,176.76 625.02,176.84 C621.82,176.92 619.1,176.96 616.86,176.96 L616.86,176.96 L616.86,177.92 L625.98,177.92 L625.98,238.04 L616.98,238.04 L616.98,239 L659.46,239 Z M720.18,170.96 C722.02,170.96 723.76,170.72 725.4,170.24 C727.04,169.76 728.48,169.1 729.72,168.26 C730.96,167.42 731.94,166.44 732.66,165.32 C733.38,164.2 733.74,163 733.74,161.72 C733.74,160.44 733.38,159.24 732.66,158.12 C731.94,157 730.96,156.02 729.72,155.18 C728.48,154.34 727.04,153.68 725.4,153.2 C723.76,152.72 722.02,152.48 720.18,152.48 C718.34,152.48 716.6,152.72 714.96,153.2 C713.32,153.68 711.88,154.34 710.64,155.18 C709.4,156.02 708.42,157 707.7,158.12 C706.98,159.24 706.62,160.44 706.62,161.72 C706.62,163 706.98,164.2 707.7,165.32 C708.42,166.44 709.4,167.42 710.64,168.26 C711.88,169.1 713.32,169.76 714.96,170.24 C716.6,170.72 718.34,170.96 720.18,170.96 Z M741.06,239 L741.06,238.04 L732.06,238.04 L732.06,174.44 C730.38,174.92 728.14,175.32 725.34,175.64 C722.54,175.96 719.56,176.22 716.4,176.42 C713.24,176.62 710.1,176.76 706.98,176.84 C703.86,176.92 701.18,176.96 698.94,176.96 L698.94,177.92 L708.06,177.92 L708.06,238.04 L698.94,238.04 L698.94,239 L741.06,239 Z" id="DanielMoya" fill="#000000" fill-rule="nonzero"></path>
        <path d="M821.457855,275.960623 C825.67654,275.967266 829.310588,276.027059 832.36,276.14 C835.6,276.26 838.4,276.68 840.76,277.4 C843.12,278.12 845.16,279.2 846.88,280.64 C848.6,282.08 850.18,284.12 851.62,286.76 L851.62,286.76 L866.02,313.04 L876.7,285.44 L876.813437,285.144688 C877.062812,284.466563 877.205,283.865 877.24,283.34 C877.28,282.74 877.3,282.24 877.3,281.84 C877.3,280.72 877.1,279.82 876.7,279.14 C876.3,278.46 875.82,277.96 875.26,277.64 C874.7,277.32 874.1,277.12 873.46,277.04 C872.82,276.96 872.26,276.92 871.78,276.92 L871.78,276.92 L869.38,276.92 L869.38,275.96 L890.62,275.96 L890.62,276.92 L889.06,276.92 L888.649333,276.923467 C886.757778,276.955822 885.214667,277.214667 884.02,277.7 C882.74,278.22 881.7,278.9 880.9,279.74 C880.1,280.58 879.48,281.48 879.04,282.44 C878.6,283.4 878.22,284.32 877.9,285.2 L877.9,285.2 L852.22,350 L851.994167,350.515 C851.144722,352.385 850.06,354.053333 848.74,355.52 C847.3,357.12 845.74,358.46 844.06,359.54 C842.38,360.62 840.66,361.44 838.9,362 C837.14,362.56 835.54,362.84 834.1,362.84 C832.74,362.84 831.4,362.58 830.08,362.06 C828.76,361.54 827.58,360.8 826.54,359.84 C825.5,358.88 824.66,357.74 824.02,356.42 C823.38,355.1 823.06,353.64 823.06,352.04 C823.06,350.52 823.36,349.08 823.96,347.72 C824.56,346.36 825.38,345.18 826.42,344.18 C827.46,343.18 828.66,342.38 830.02,341.78 C831.38,341.18 832.82,340.88 834.34,340.88 C836.34,340.88 838.18,341.38 839.86,342.38 C841.54,343.38 842.82,344.84 843.7,346.76 L843.7,346.76 L845.74,351.2 L845.860469,351.403438 C846.465156,352.387813 847.105,352.88 847.78,352.88 C848.34,352.88 848.9,352.54 849.46,351.86 C850.02,351.18 850.5,350.52 850.9,349.88 L850.9,349.88 L855.58,338 L855.463945,337.782215 C854.828374,336.588581 853.927059,334.881176 852.76,332.66 C851.52,330.3 850.08,327.58 848.44,324.5 C846.8,321.42 845.02,318.1 843.1,314.54 C841.18,310.98 839.22,307.44 837.22,303.92 C835.22,300.4 833.24,297.02 831.28,293.78 C829.32,290.54 827.48,287.66 825.76,285.14 C824.04,282.62 822.48,280.62 821.08,279.14 C819.68,277.66 818.58,276.92 817.78,276.92 L817.78,276.92 L816.94,276.92 L816.94,275.96 Z M780.7,274.16 L781.281653,274.160992 C783.195702,274.167603 784.861818,274.207273 786.28,274.28 C787.84,274.36 789.4,274.62 790.96,275.06 C792.52,275.5 794.2,276.16 796,277.04 C797.8,277.92 799.98,279.2 802.54,280.88 C805.9,283.04 808.76,286.3 811.12,290.66 C813.48,295.02 814.66,300.32 814.66,306.56 C814.66,312.8 813.48,318.12 811.12,322.52 C808.76,326.92 805.9,330.16 802.54,332.24 C799.98,333.92 797.8,335.2 796,336.08 C794.2,336.96 792.52,337.62 790.96,338.06 C789.4,338.5 787.84,338.76 786.28,338.84 C784.861818,338.912727 783.195702,338.952397 781.281653,338.959008 L781.281653,338.959008 L779.5,338.96 L778.8598,338.9588 C776.9626,338.9516 775.276,338.912 773.8,338.84 C772.16,338.76 770.5,338.5 768.82,338.06 C767.14,337.62 765.36,336.96 763.48,336.08 C761.6,335.2 759.38,333.92 756.82,332.24 C753.46,330.16 750.6,326.92 748.24,322.52 C745.88,318.12 744.7,312.8 744.7,306.56 C744.7,300.32 745.88,295.02 748.24,290.66 C750.6,286.3 753.46,283.04 756.82,280.88 C759.38,279.2 761.58,277.92 763.42,277.04 C765.26,276.16 766.96,275.5 768.52,275.06 C770.08,274.62 771.64,274.36 773.2,274.28 C774.76,274.2 776.62,274.16 778.78,274.16 L778.78,274.16 L780.7,274.16 Z M923.02,274.04 C925.98,274.04 928.98,274.32 932.02,274.88 C935.06,275.44 937.82,276.4 940.3,277.76 C942.78,279.12 944.82,281.02 946.42,283.46 C948.02,285.9 948.82,288.96 948.82,292.64 L948.82,292.64 L948.82,337.04 L957.7,337.04 L957.7,338 L926.74,338 L926.74,330.56 L925.9,331.04 L925.084793,331.497686 C922.340992,333.021653 919.332727,334.529091 916.06,336.02 C912.46,337.66 908.9,338.48 905.38,338.48 L905.38,338.48 L904.78,338.48 L904.32281,338.472066 C902.802149,338.419174 901.314545,338.101818 899.86,337.52 C898.26,336.88 896.82,335.96 895.54,334.76 C894.26,333.56 893.24,332.08 892.48,330.32 C891.72,328.56 891.34,326.56 891.34,324.32 C891.34,323.04 891.54,321.8 891.94,320.6 C892.34,319.4 892.86,318.28 893.5,317.24 C893.98,316.44 894.74,315.54 895.78,314.54 C896.82,313.54 897.98,312.56 899.26,311.6 C900.54,310.64 901.88,309.7 903.28,308.78 C904.68,307.86 906.06,307.04 907.42,306.32 C910.46,304.56 913.68,302.84 917.08,301.16 C920.48,299.48 923.7,297.84 926.74,296.24 L926.74,296.24 L926.74,293.24 L926.732653,292.348571 C926.703265,290.565714 926.585714,288.782857 926.38,287 C926.14,284.92 925.58,283.04 924.7,281.36 C923.82,279.68 922.56,278.32 920.92,277.28 C919.28,276.24 917.1,275.72 914.38,275.72 C913.42,275.72 912.44,275.78 911.44,275.9 C910.44,276.02 909.5,276.28 908.62,276.68 C907.9,277 907.24,277.5 906.64,278.18 C906.04,278.86 905.74,279.64 905.74,280.52 C905.74,281.72 906.2,282.68 907.12,283.4 C908.04,284.12 909.08,284.84 910.24,285.56 C911.4,286.28 912.44,287.12 913.36,288.08 C914.28,289.04 914.74,290.28 914.74,291.8 C914.74,294.36 913.88,296.36 912.16,297.8 C910.44,299.24 908.46,299.96 906.22,299.96 C904.86,299.96 903.52,299.7 902.2,299.18 C900.88,298.66 899.68,297.92 898.6,296.96 C897.52,296 896.64,294.88 895.96,293.6 C895.28,292.32 894.94,290.92 894.94,289.4 C894.94,286.12 895.92,283.48 897.88,281.48 C899.84,279.48 902.26,277.92 905.14,276.8 C908.02,275.68 911.08,274.94 914.32,274.58 C917.56,274.22 920.46,274.04 923.02,274.04 Z M636.82,254 L637.541481,254.034074 C639.469383,254.144691 641.428889,254.413333 643.42,254.84 C645.34,255.24 647.46,255.94 649.78,256.94 C652.1,257.94 654.38,259.32 656.62,261.08 C658.86,263.08 660.94,265.56 662.86,268.52 C664.78,271.48 666.58,274.64 668.26,278 C669.94,281.36 671.48,284.76 672.88,288.2 C674.28,291.64 675.56,294.86 676.72,297.86 C677.88,300.86 678.94,303.5 679.9,305.78 C680.86,308.06 681.7,309.64 682.42,310.52 L682.42,310.52 L702.46,254 L741.22,254 L741.22,254.96 L729.22,254.96 L729.22,337.04 L741.22,337.04 L741.22,338 L690.34,338 L690.34,337.04 L702.34,337.04 L702.34,257.12 L673.66,338 L672.58,338 L672.407883,337.994872 C670.852628,337.902577 669.13,336.564286 667.24,333.98 C665.28,331.3 663.22,327.82 661.06,323.54 C658.9,319.26 656.64,314.44 654.28,309.08 C651.92,303.72 649.54,298.38 647.14,293.06 C644.74,287.74 642.34,282.68 639.94,277.88 C637.54,273.08 635.22,269.08 632.98,265.88 L632.98,265.88 L632.98,331.28 L632.986563,331.577187 C633.052188,333.049062 633.61,334.31 634.66,335.36 C635.78,336.48 637.14,337.04 638.74,337.04 L638.74,337.04 L646.9,337.04 L646.9,338 L618.22,338 L618.22,337.04 L626.26,337.04 L626.557188,337.033437 C628.029063,336.967813 629.29,336.41 630.34,335.36 C631.46,334.24 632.02,332.88 632.02,331.28 L632.02,331.28 L632.02,264.56 L631.5904,264.0416 C631.0208,263.3632 630.464,262.736 629.92,262.16 C629.24,261.44 628.58,260.84 627.94,260.36 C625.94,259 624.08,257.94 622.36,257.18 C620.64,256.42 619.1,255.88 617.74,255.56 C616.22,255.24 614.82,255.04 613.54,254.96 L613.54,254.96 L613.54,254 L636.82,254 Z M779.74,275.12 C779.26,275.12 778.54,275.28 777.58,275.6 C776.62,275.92 775.3,277.04 773.62,278.96 C772.74,279.92 772.02,281.32 771.46,283.16 C770.9,285 770.46,287.14 770.14,289.58 C769.82,292.02 769.62,294.68 769.54,297.56 C769.46,300.44 769.42,303.44 769.42,306.56 C769.42,309.68 769.46,312.68 769.54,315.56 C769.62,318.44 769.82,321.1 770.14,323.54 C770.46,325.98 770.9,328.12 771.46,329.96 C772.02,331.8 772.74,333.24 773.62,334.28 C774.74,335.48 775.88,336.4 777.04,337.04 C778.2,337.68 779.1,338 779.74,338 L779.74,338 L780.7,338 C782.86,338 784.78,336.8 786.46,334.4 C787.18,333.36 787.78,331.9 788.26,330.02 C788.74,328.14 789.12,325.98 789.4,323.54 C789.68,321.1 789.86,318.44 789.94,315.56 C790.02,312.68 790.06,309.68 790.06,306.56 C790.06,303.44 790,300.44 789.88,297.56 C789.76,294.68 789.56,292.02 789.28,289.58 C789,287.14 788.58,285 788.02,283.16 C787.46,281.32 786.74,279.92 785.86,278.96 C784.1,277.04 782.76,275.92 781.84,275.6 C780.92,275.28 780.22,275.12 779.74,275.12 Z M926.74,297.44 L926.336686,297.630651 C924.734793,298.417396 923.269231,299.493846 921.94,300.86 C920.5,302.34 919.28,304 918.28,305.84 C917.28,307.68 916.5,309.66 915.94,311.78 C915.38,313.9 915.1,316 915.1,318.08 L915.1,318.08 L915.1,325.52 L915.107031,325.804297 C915.177344,327.222266 915.775,328.5875 916.9,329.9 C918.1,331.3 919.42,332 920.86,332 C921.42,332 921.94,331.88 922.42,331.64 L922.42,331.64 L924.186667,330.756667 C924.315556,330.692222 924.446667,330.626667 924.58,330.56 C925.38,330.16 926.1,329.76 926.74,329.36 L926.74,329.36 L926.74,297.44 Z" id="Combined-Shape" fill="#000000"></path>
        <path d="M-19.0483642,103.72 C14.7745205,91.2133333 41.0192961,99.2933333 59.6859628,127.96 C87.6859628,170.96 93.849014,198.44 70,215.72 C46.150986,233 8.90327169,286.360591 -19.0483642,286.360591 C-47,286.360591 -61.0064462,113.08 -40.0274052,108.4 C-26.0413778,105.28 -19.0483642,103.72 -19.0483642,103.72 Z" id="Path-11" fill="#FFFFFF"></path>
        <path d="M1460.3712,72.0187208 C1481.18187,64.382139 1497.32985,69.3157942 1508.81515,86.8196865 C1526.04309,113.075525 1529.83511,129.854838 1515.1612,140.406021 C1500.4873,150.957204 1477.56938,183.539229 1460.3712,183.539229 C1443.17301,183.539229 1434.55508,77.7339452 1447.46314,74.876333 C1456.06851,72.9712582 1460.3712,72.0187208 1460.3712,72.0187208 Z" id="Path-11" fill="#FFFFFF" transform="translate(1482.750936, 126.039229) rotate(148.000000) translate(-1482.750936, -126.039229) "></path>
        <path d="M1438.5223,435.498515 C1413.71084,461.362232 1406.50207,472.291675 1410.10645,493.413066 C1413.71084,514.534458 1413.71084,517.79108 1438.5223,526.881336 C1463.33376,535.971592 1505.01702,518.649391 1522.21964,506.031228 C1539.42225,493.413066 1520.56679,460.351698 1512.56982,447.925106 C1504.57285,435.498515 1463.33376,409.634797 1438.5223,435.498515 Z" id="Path-12" fill="#FFFFFF"></path>
    </g>
</svg>