<?xml version="1.0" encoding="UTF-8"?>
<svg width="1500px" height="500px" viewBox="0 0 1500 500" version="1.1" xmlns="http://www.w3.org/2000/svg" xmlns:xlink="http://www.w3.org/1999/xlink">
    <title>Header Photo</title>
    <g id="Header-Photo" stroke="none" stroke-width="1" fill="none" fill-rule="evenodd">
        <rect fill="#FFFFFF" x="0" y="0" width="1500" height="500"></rect>
        <g id="Group" transform="translate(-73.695601, -86.000000)">
            <path d="M266.195601,63.1216586 C221.195601,90.4805529 201.362268,126.44 206.695601,171 C214.695601,237.84 233.695601,226.029281 233.695601,281.01464 C233.695601,336 226.695601,359.133444 206.695601,412.566722 C186.695601,466 212.695601,484 213.695601,535 C214.695601,586 199.695601,626.321606 186.695601,644.69359 C178.028935,656.941579 115.797068,656.941579 -2.84217094e-14,644.69359 L-2.84217094e-14,26.48 L297.695601,40.5 L266.195601,63.1216586 Z" id="Path-6" fill="#FF6C00"></path>
            <path d="M1468.1956,63.1216586 C1470.06598,66.4538862 1452.89932,83.24 1416.6956,113.48 C1362.39003,158.84 1361.69137,223.757579 1389.69137,308.575652 C1417.69137,393.393725 1456.6956,393 1436.6956,466 C1416.6956,539 1408.6956,551.825455 1408.6956,613.927982 C1408.6956,655.329667 1530.12848,676.315982 1772.99424,676.886927 L1722.88808,267 L1662.6956,24 L1468.1956,63.1216586 Z" id="Path-7" fill="#FF6C00"></path>
            <path d="M54.6472373,325 C120.738687,325.834655 160.421475,330.834655 173.695601,340 C216.346577,369.449087 194.424326,435.776303 206.695601,466 C233.695601,532.5 233.695601,531.851383 206.695601,586 C188.695601,622.099078 159.74593,658.550546 119.846587,695.354405 L2.13162821e-13,653.879581 L2.13162821e-13,455.5 L54.6472373,325 Z" id="Path-8" fill="#000000"></path>
            <path d="M1326.38156,53 C1294.80028,94.36 1286.90496,129.36 1302.6956,158 C1326.38156,200.96 1387.30674,183.638183 1435.00117,224.84 C1482.6956,266.041817 1527.6956,205.64 1547.1956,181.4 C1566.6956,157.16 1542.1956,143.74 1564.6956,106 C1579.6956,80.84 1598.6956,45.5066667 1621.6956,2.84217094e-14 L1326.38156,53 Z" id="Path-9" fill="#000000"></path>
            <path d="M1596.1956,374.530401 C1540.72803,366.316198 1510.7778,381.424247 1506.34492,419.854548 C1499.6956,477.5 1472.6956,470 1510.1956,510 C1535.1956,536.666667 1586.02893,562 1662.6956,586 L1638.6956,419.854548 L1596.1956,374.530401 Z" id="Path-10" fill="#000000"></path>
            <path d="M54.6472373,189.72 C88.4701219,177.213333 114.714898,185.293333 133.381564,213.96 C161.381564,256.96 167.544615,284.44 143.695601,301.72 C119.846587,319 82.5988731,372.360591 54.6472373,372.360591 C26.6956014,372.360591 12.6891552,199.08 33.6681963,194.4 C47.6542236,191.28 54.6472373,189.72 54.6472373,189.72 Z" id="Path-11" fill="#FFFFFF"></path>
            <path d="M1534.0668,158.018721 C1554.87747,150.382139 1571.02545,155.315794 1582.51075,172.819687 C1599.73869,199.075525 1603.53072,215.854838 1588.85681,226.406021 C1574.1829,236.957204 1551.26499,269.539229 1534.0668,269.539229 C1516.86862,269.539229 1508.25068,163.733945 1521.15874,160.876333 C1529.76411,158.971258 1534.0668,158.018721 1534.0668,158.018721 Z" id="Path-11" fill="#FFFFFF" transform="translate(1556.446537, 212.039229) rotate(148.000000) translate(-1556.446537, -212.039229) "></path>
            <path d="M1512.2179,521.498515 C1487.40644,547.362232 1480.19767,558.291675 1483.80205,579.413066 C1487.40644,600.534458 1487.40644,603.79108 1512.2179,612.881336 C1537.02936,621.971592 1578.71262,604.649391 1595.91524,592.031228 C1613.11785,579.413066 1594.26239,546.351698 1586.26542,533.925106 C1578.26846,521.498515 1537.02936,495.634797 1512.2179,521.498515 Z" id="Path-12" fill="#FFFFFF"></path>
        </g>
        <g id="Lynx" transform="translate(855.000000, 157.500000) scale(-1, 1) translate(-855.000000, -157.500000) translate(773.000000, 61.000000)">
            <path d="M155.388954,74.3619458 C148.052175,59.6850731 136.843207,47.8620367 123.392445,39.912064 C118.705059,28.2928731 115.650448,25.6646933 115.650448,13.9374307 C117.536524,11.1067866 118.834462,8.81948229 119.544264,7.07551783 C120.608966,4.45957113 116.149057,9.39446911 116.820469,8.2381154 C117.491881,7.08176168 122.449483,1.04561481 120.608966,2.12966529 C118.768449,3.21371577 116.413138,5.92945196 114.734216,8.2381154 C113.055295,10.5467788 116.858655,3.56728244 115.179733,4.45957113 C114.060452,5.05443026 112.356788,7.4035404 110.068742,11.5069015 C101.405732,13.3066141 94.6567273,22.381355 92.4149337,29.3121004 C85.6895529,28.4967186 78.9641721,29.7197913 72.8501896,32.5736277 C66.3286082,35.8351549 61.2336227,40.7274458 57.972832,47.0466549 C53.2854454,49.4928004 50.0246547,53.5697094 48.3942594,58.4620003 C46.763864,63.5581367 47.1714629,69.0619639 49.6170559,73.9542548 C52.0626489,78.8465457 56.3424367,82.5157639 61.4374221,84.1465275 C65.939442,86.0253261 69.3751284,86.5916459 75.656419,89.666849 C79.8995819,91.8451855 83.5569256,93.8751487 86.62845,95.7567387 C80.9948622,98.7497819 72.4425907,105.346455 70.8121954,111.257973 C69.9969977,113.907964 69.3855995,118.800255 72.8501896,122.265627 C68.5704018,122.469473 64.290614,123.4887 60.0108262,125.527155 C60.2146256,125.119464 60.2146256,124.915618 60.4184251,124.507927 C60.8260239,123.284855 61.845021,122.265627 62.8640181,121.042555 C65.3096111,117.984873 69.5893989,112.684891 63.2716169,105.754146 C61.6412216,103.919537 59.6032274,103.104155 57.1576344,103.511846 C46.1524658,105.346455 33.3131025,131.642518 33.3131025,131.846364 C30.4599106,137.757882 29.0333147,142.650173 28.4219164,146.115546 C24.9573263,139.796336 21.6965356,131.234827 19.8623409,119.615637 C15.1749542,90.8734275 34.7396984,69.2658094 34.9434978,69.2658094 C37.5928902,66.6158185 41.4650792,60.092764 36.3700937,53.9774003 C34.7396984,52.1427913 32.7017042,51.123564 30.4599106,51.123564 C25.9763234,51.123564 22.3079339,54.7927822 21.900335,55.2004731 C-1.33279862,80.0696185 -6.63158349,117.373337 8.65337287,147.746309 C14.9711548,160.180882 24.3459281,170.984691 35.7586955,178.730818 C49.6170559,188.107709 65.7172099,193 82.0211634,193 C94.6567273,193 107.088492,190.146164 118.705059,184.234645 C159.057343,164.053946 175.565096,114.723346 155.388954,74.3619458 Z" id="Path" fill="#FFFFFF"></path>
            <path d="M29.8930075,53.1328358 C34.1904873,55.4242064 34.7245198,59.2267408 31.4951048,64.5404392 C13.8833789,85.7413899 16.8984081,130.225548 23.7856168,146.354593 C28.3770892,157.10729 37.8832158,163.866186 52.3039965,166.631282 C58.7638495,166.631282 61.9937759,169.410277 61.9937759,174.968266 C60.5810862,181.034667 56.2854378,182.525118 49.1068307,179.439617 C34.7944395,175.189298 23.4457784,166.156854 15.0608473,152.342286 C2.48345063,131.620434 -0.0580339869,118.04133 6.5079615,87.4001409 C10.8852918,66.9726813 18.6803072,55.5502462 29.8930075,53.1328358 Z M71.108694,42.912606 C76.2380595,42.0926812 80.6791229,43.3023573 84.431884,46.5416342 C86.8676167,48.3752819 88.2668461,49.1361749 88.629572,48.8243131 C89.1736609,48.3565205 89.0630893,57.9895007 84.431884,61.2700491 C79.8006786,64.5505975 76.3303414,62.2684085 71.108694,58.6636164 C65.8870466,55.0588243 58.012112,55.0477047 56.3239631,56.9163005 C53.3286115,56.8131706 58.9589616,51.7928052 61.3420914,46.5416342 C63.7252211,41.2904632 63.4146456,44.1424933 71.108694,42.912606 Z M111.637478,14 C111.637478,18.7349065 115.088794,28.507167 121.991428,43.3167815 C124.669524,44.2041143 124.669524,45.788986 121.991428,48.0713966 C117.974284,51.4950124 96.0541854,26.8611212 98.5991495,23.8235894 C101.144114,20.7860575 106.984147,14 111.637478,14 Z" id="Black-spots" fill="#000000"></path>
            <path d="M132.286007,153.240514 C136.279665,156.77852 133.795869,162.124732 130.00167,165.616276 C128.613669,166.893559 126.827221,167.802553 124.946246,168.2688 C124.998963,168.396255 125.04913,168.526168 125.097123,168.656605 C126.390335,172.17135 125.064611,176.948711 121.777629,178.379418 C118.490646,179.810126 114.109496,178.95348 112.53618,173.840068 C111.732165,171.226949 112.160783,169.100912 113.227455,167.414955 C112.191624,166.584868 111.327465,165.335441 110.790442,163.590068 C109.364151,158.954502 111.816873,155.85175 114.829352,154.019419 C115.368093,153.314001 116.031492,152.626354 116.831375,151.967538 C122.512659,147.288195 128.292349,149.702508 132.286007,153.240514 Z M43.7122957,149.17687 C43.5262038,153.78328 39.9950862,158.782743 35.8651865,159.097434 C31.7352868,159.412125 27.4579868,156.625676 28.0562827,150.050133 C28.6545785,143.474591 33.4424842,140.993994 37.8399677,140.37679 C42.2374511,139.759587 43.8983876,144.570461 43.7122957,149.17687 Z M150.906948,144.037169 C152.535438,148.611916 150.866007,154.830068 146.726844,156.692259 C142.587682,158.554449 137.070677,157.43945 135.089465,150.783898 C133.108253,144.128346 137.070677,139.900404 141.36652,137.641665 C145.662362,135.382926 149.278459,139.462422 150.906948,144.037169 Z M160.446436,100.700972 C160.852756,101.954372 160.831764,103.096223 160.495745,104.115559 C160.500559,104.129178 160.50563,104.142889 160.510676,104.156605 C161.803889,107.67135 160.478164,112.448711 157.191182,113.879418 C153.9042,115.310126 149.523049,114.45348 147.949734,109.340068 L147.91506,109.224763 C145.094481,108.357012 142.660071,106.349544 141.941897,103.596439 C140.791107,99.1849105 142.608392,93.7771037 149.088486,92.6562876 C155.56858,91.5354714 158.948318,96.0796485 160.446436,100.700972 Z M102.212229,98.1566052 C104.008357,101.67135 102.167074,106.448711 97.6018205,107.879418 C93.0365673,109.310126 86.9516358,108.45348 84.7664753,103.340068 C82.5813147,98.226656 86.9516358,94.9783591 91.6896976,93.2429864 C96.4277594,91.5076137 100.416101,94.6418607 102.212229,98.1566052 Z M146.418304,63.5855827 C149.132474,70.5253179 146.782009,79.7621351 140.538815,83.5693509 C140.688374,86.5818483 139.316953,89.7582412 136.741102,90.8794182 C133.45412,92.3101257 129.072969,91.4534795 127.499653,86.3400677 C127.34925,85.8512438 127.241981,85.3794646 127.173953,84.9244223 C123.167945,83.5353188 119.645872,80.3146688 117.807267,74.6930023 C114.223604,63.7356914 121.390931,56.7750553 129.161352,53.0563995 C136.931773,49.3377437 143.472654,56.0539873 146.418304,63.5855827 Z M69.988593,37.7446612 C73.0240553,35.8433197 94.1986942,29.2942821 90.9505676,35.0972567 C90.3810667,36.1147046 99.7264349,44.6948048 93.5263801,48.7829428 C92.1684345,49.6783332 89.2907191,50.421868 84.1631036,48.7829428 C80.9956449,47.770537 75.5149749,45.678384 71.6137548,46.1135067 C69.3499174,46.3660039 66.6086503,48.9115016 63.3899533,53.75 C62.1252527,52.0345331 61.4929024,50.3788474 61.4929024,48.7829428 C61.4929024,46.389086 63.3899533,41.8778924 69.988593,37.7446612 Z M101.453122,23 C101.573433,26.6029656 103.056888,29.4303346 105.903485,31.482107 C106.667572,32.0328459 107.468509,32.7038092 108.226597,33.422852 L108.492249,33.6785107 C111.831345,36.939166 114.126648,40.9911118 108.256957,39.3882192 L107.630423,39.2166796 C100.558487,37.2742081 94.5337327,35.3668321 96.55386,31.375 C97.9402218,28.6355074 99.573309,25.8438407 101.453122,23 Z" id="Orange-spots" fill="#FF6C00" fill-rule="nonzero"></path>
            <path d="M155.388954,72.3619458 C148.052175,57.6850731 136.843207,45.8620367 123.392445,37.912064 C118.705059,26.2928731 115.650448,23.6646933 115.650448,11.9374307 C117.536524,9.1067866 118.834462,6.81948229 119.544264,5.07551783 C120.608966,2.45957113 116.149057,7.39446911 116.820469,6.2381154 C117.491881,5.08176168 122.449483,-0.95438519 120.608966,0.129665288 C118.768449,1.21371577 116.413138,3.92945196 114.734216,6.2381154 C113.055295,8.54677883 116.858655,1.56728244 115.179733,2.45957113 C114.060452,3.05443026 112.356788,5.4035404 110.068742,9.50690154 C101.405732,11.3066141 94.6567273,20.381355 92.4149337,27.3121004 C85.6895529,26.4967186 78.9641721,27.7197913 72.8501896,30.5736277 C66.3286082,33.8351549 61.2336227,38.7274458 57.972832,45.0466549 C53.2854454,47.4928004 50.0246547,51.5697094 48.3942594,56.4620003 C46.763864,61.5581367 47.1714629,67.0619639 49.6170559,71.9542548 C52.0626489,76.8465457 56.3424367,80.5157639 61.4374221,82.1465275 C65.939442,84.0253261 69.3751284,84.5916459 75.656419,87.666849 C79.8995819,89.8451855 83.5569256,91.8751487 86.62845,93.7567387 C80.9948622,96.7497819 72.4425907,103.346455 70.8121954,109.257973 C69.9969977,111.907964 69.3855995,116.800255 72.8501896,120.265627 C68.5704018,120.469473 64.290614,121.4887 60.0108262,123.527155 C60.2146256,123.119464 60.2146256,122.915618 60.4184251,122.507927 C60.8260239,121.284855 61.845021,120.265627 62.8640181,119.042555 C65.3096111,115.984873 69.5893989,110.684891 63.2716169,103.754146 C61.6412216,101.919537 59.6032274,101.104155 57.1576344,101.511846 C46.1524658,103.346455 33.3131025,129.642518 33.3131025,129.846364 C30.4599106,135.757882 29.0333147,140.650173 28.4219164,144.115546 C24.9573263,137.796336 21.6965356,129.234827 19.8623409,117.615637 C15.1749542,88.8734275 34.7396984,67.2658094 34.9434978,67.2658094 C37.5928902,64.6158185 41.4650792,58.092764 36.3700937,51.9774003 C34.7396984,50.1427913 32.7017042,49.123564 30.4599106,49.123564 C25.9763234,49.123564 22.3079339,52.7927822 21.900335,53.2004731 C-1.33279862,78.0696185 -6.63158349,115.373337 8.65337287,145.746309 C14.9711548,158.180882 24.3459281,168.984691 35.7586955,176.730818 C49.6170559,186.107709 65.7172099,191 82.0211634,191 C94.6567273,191 107.088492,188.146164 118.705059,182.234645 C159.057343,162.053946 175.565096,112.723346 155.388954,72.3619458 Z M119.367625,118.57511 C118.552973,120.410375 118.552973,122.449558 119.367625,124.488741 C123.03356,132.645475 143.399865,139.37478 149.71342,141.413963 C147.473126,146.308003 144.621844,150.998125 141.159572,155.28041 C136.678985,152.425553 127.310484,147.735432 121.404256,153.852982 C119.367625,155.892165 118.552973,158.543103 118.756636,161.194042 C119.163962,165.884163 122.829897,169.554693 124.662865,170.982122 C121.811582,173.021305 118.756636,174.85657 115.498028,176.283998 C91.0584617,188.519099 61.9346457,186.479915 39.3280472,171.18604 C28.7375687,164.048898 20.1837206,154.0569 14.4811553,142.637473 C0.428404893,114.700661 5.31631807,80.4423811 26.7009382,57.6035276 C27.5155904,56.7878543 29.1448948,55.5643443 30.16321,55.5643443 C30.3668731,55.5643443 30.5705361,55.5643443 30.9778622,56.1760993 C33.2181558,58.8270376 30.5705361,61.6818943 29.959547,62.2936493 C29.1448948,63.313241 7.76027465,86.5599312 13.0555139,118.57511 C19.1654054,157.931348 40.5500255,165.884163 43.1976452,166.903755 C61.7309826,174.652652 78.8386787,165.680245 79.4496679,165.272408 C81.7354859,163.925533 82.5078347,162.362159 81.7667141,160.582287 C81.0255935,158.802414 79.1670419,158.394578 76.1910591,159.358777 C75.987396,159.358777 61.1199935,167.311592 45.4379387,160.582287 L45.0306126,160.378368 C44.6232865,160.17445 39.3280472,158.543103 33.6254819,152.017717 C34.032808,151.405962 33.8291449,143.657065 39.1243842,132.849393 C45.0306126,120.206456 54.3991129,108.583111 57.4540586,108.583111 L57.6577216,108.583111 C60.1016782,111.437968 59.6943521,112.049723 57.0467325,115.108498 C55.8247542,116.535926 54.3991129,118.167273 53.5844607,120.410375 C51.3441671,125.712251 48.4928844,130.81021 46.456254,134.48074 C44.6232865,137.335597 43.4143644,139.615274 43.4143644,139.615274 C43.4143644,139.709437 41.781158,142.124239 44.5725566,144.355893 C47.0738187,145.949377 49.2974322,143.154375 49.2974322,143.044619 C49.5010953,142.840701 50.733178,141.210045 52.3624824,138.355188 C54.806439,135.092495 58.0650477,132.441556 61.9346457,130.606291 C70.2848307,126.527925 79.6533309,126.731843 87.3925268,130.81021 C92.484103,133.461148 96.761027,137.743433 99.6123097,143.249228 C102.056266,148.347187 103.074582,153.852982 102.259929,159.358777 C102.056266,161.194042 103.278245,162.825388 105.111212,163.233225 C105.314875,163.233225 105.314875,163.233225 105.518538,163.233225 C107.147843,163.233225 108.573484,162.009715 108.777147,160.378368 C109.591799,153.445145 108.573484,146.511922 105.314875,140.190453 C102.259929,134.276822 97.9830053,129.5867 92.6877661,126.324006 C93.5024183,121.226048 91.8731139,116.12809 91.6694508,115.312416 C91.6694508,115.108498 91.6694508,115.108498 91.4657878,114.90458 C91.8731139,114.496743 92.484103,113.884988 93.0950922,113.477151 C94.3170705,112.661478 95.9463748,111.845805 97.3720162,111.845805 C99.0013206,111.845805 100.426962,112.661478 101.852603,114.496743 C103.074582,115.924171 105.111212,116.12809 106.536853,114.90458 C107.962495,113.68107 108.166158,111.641886 106.944179,110.214458 C103.481908,106.136091 99.8159728,105.1165 97.1683531,105.1165 C90.2438095,105.1165 85.1522332,111.23405 84.5412441,112.049723 C84.3375811,112.253641 84.133918,112.45756 84.133918,112.661478 C83.930255,112.865396 81.4862984,118.167273 77.6167004,116.535926 C75.3764069,115.516335 76.1910591,112.661478 76.3947221,111.845805 C78.0240265,106.34001 81.6899614,101.853806 86.9852007,99.2028679 C96.3537009,94.5127462 107.758832,97.5715212 113.461397,106.34001 C114.479712,107.971356 116.516343,108.379193 118.145647,107.359601 C119.774952,106.34001 120.182278,104.300826 119.163962,102.66948 C114.683375,95.7362562 107.555169,91.4539712 100.019636,90.4343795 C81.7667141,89.8410506 86.0158322,82.6515955 65.6005806,77.5875244 C65.6005806,77.5875244 57.0467325,73.9447531 55.4174281,69.2268727 C53.7881237,65.9641794 53.5844607,62.2936493 54.6027759,58.8270376 C54.7091842,58.6139542 55.2097901,57.2985384 56.0610747,56.4947425 C56.9123592,55.6909466 57.9861002,55.3512609 58.4723738,55.1565076 L61.5273196,55.1565076 L63.5639501,55.1565076 C64.9895914,55.1565076 66.2115697,54.3408343 66.6188958,52.9134059 C67.2298849,51.4859776 66.8225588,50.0585492 65.6005806,49.0389576 L63.9712762,47.8154476 C66.6188958,42.9214075 70.6921568,39.0469592 75.5800699,36.5999392 C79.856994,34.5607558 84.5412441,33.5411641 89.2254942,33.7450825 C89.8364834,33.7450825 90.2438095,33.9490008 90.8547986,33.9490008 C90.6511356,36.3960208 90.6511356,38.4352042 91.0584617,40.2704692 C91.2621247,42.1057342 93.0950922,43.3292442 94.9280596,43.1253259 C96.3537009,42.9214075 97.5756792,41.6978975 97.7793423,40.2704692 C97.7793423,39.8626325 97.7793423,39.6587142 97.7793423,39.2508775 C97.7793423,39.0469592 97.5756792,37.4156125 97.5756792,34.9685925 C97.5756792,33.1333275 97.9830053,30.6863074 98.7976575,28.4432058 C100.223299,24.3648391 102.259929,17.2402227 109.798745,15.9829562 C109.798745,22.4773359 111.62843,27.0157774 114.072386,33.3372458 C115.294364,36.3960208 116.516343,39.6587142 117.738321,42.7174892 C117.941984,43.1253259 118.145647,43.5331625 118.145647,43.9409992 C118.552973,44.5527542 118.756636,45.3684275 118.960299,45.9801826 C119.571289,47.2036926 120.793267,48.0193659 122.015245,48.0193659 C122.422571,48.0193659 123.03356,48.0193659 123.440886,47.8154476 C123.848213,47.6115292 124.255539,47.4076109 124.459202,47.2036926 C133.827702,53.5251609 141.566898,62.089731 147.269463,72.2856477 C139.73393,75.7522594 136.05087,79.2679106 134.152524,81.8168164 C132.254178,84.3657222 133.525933,90.0826977 134.152524,91.3562572 C134.779115,92.6298168 136.8883,96.3480112 142.346,96.9597662 C147.8037,97.5715212 152.768365,97.5715212 156.026974,96.9597662 C156.841626,102.261643 157.248953,107.359601 156.841626,112.661478 C147.676789,111.23405 123.848213,108.990948 119.367625,118.57511 Z" id="Shape" fill="#000000" fill-rule="nonzero"></path>
        </g>
        <path d="M496.74,239 C506.02,239.16 514.34,237.88 521.7,235.16 C524.82,233.96 527.88,232.4 530.88,230.48 C533.88,228.56 536.56,226.1 538.92,223.1 C541.28,220.1 543.18,216.52 544.62,212.36 C546.06,208.2 546.78,203.32 546.78,197.72 C546.78,192.04 546.06,187.06 544.62,182.78 C543.18,178.5 541.3,174.82 538.98,171.74 C536.66,168.66 534.02,166.1 531.06,164.06 C528.1,162.02 525.06,160.4 521.94,159.2 C514.58,156.32 506.3,154.92 497.1,155 L497.1,155 L452.58,155 L452.58,155.96 L464.58,155.96 L464.58,238.04 L452.58,238.04 L452.58,239 L496.74,239 Z M496.74,238.04 L491.7,238.04 L491.7,155.96 L497.1,155.96 C501.18,156.12 504.82,157.52 508.02,160.16 C509.38,161.28 510.72,162.74 512.04,164.54 C513.36,166.34 514.52,168.6 515.52,171.32 C516.52,174.04 517.34,177.24 517.98,180.92 C518.62,184.6 518.94,188.88 518.94,193.76 L518.94,193.76 L518.94,200.12 C518.94,204.84 518.62,209.02 517.98,212.66 C517.34,216.3 516.5,219.46 515.46,222.14 C514.42,224.82 513.22,227.06 511.86,228.86 C510.5,230.66 509.14,232.16 507.78,233.36 C504.58,236.16 500.9,237.72 496.74,238.04 L496.74,238.04 Z M564.66,239.48 C568.18,239.48 571.74,238.66 575.34,237.02 C578.94,235.38 582.22,233.72 585.18,232.04 L585.18,232.04 L586.02,231.56 L586.02,239 L616.98,239 L616.98,238.04 L608.1,238.04 L608.1,193.64 C608.1,189.96 607.3,186.9 605.7,184.46 C604.1,182.02 602.06,180.12 599.58,178.76 C597.1,177.4 594.34,176.44 591.3,175.88 C588.26,175.32 585.26,175.04 582.3,175.04 C579.74,175.04 576.84,175.22 573.6,175.58 C570.36,175.94 567.3,176.68 564.42,177.8 C561.54,178.92 559.12,180.48 557.16,182.48 C555.2,184.48 554.22,187.12 554.22,190.4 C554.22,191.92 554.56,193.32 555.24,194.6 C555.92,195.88 556.8,197 557.88,197.96 C558.96,198.92 560.16,199.66 561.48,200.18 C562.8,200.7 564.14,200.96 565.5,200.96 C567.74,200.96 569.72,200.24 571.44,198.8 C573.16,197.36 574.02,195.36 574.02,192.8 C574.02,191.28 573.56,190.04 572.64,189.08 C571.72,188.12 570.68,187.28 569.52,186.56 C568.36,185.84 567.32,185.12 566.4,184.4 C565.48,183.68 565.02,182.72 565.02,181.52 C565.02,180.64 565.32,179.86 565.92,179.18 C566.52,178.5 567.18,178 567.9,177.68 C568.78,177.28 569.72,177.02 570.72,176.9 C571.72,176.78 572.7,176.72 573.66,176.72 C576.38,176.72 578.56,177.24 580.2,178.28 C581.84,179.32 583.1,180.68 583.98,182.36 C584.86,184.04 585.42,185.92 585.66,188 C585.9,190.08 586.02,192.16 586.02,194.24 L586.02,194.24 L586.02,197.24 C582.98,198.84 579.76,200.48 576.36,202.16 C572.96,203.84 569.74,205.56 566.7,207.32 C565.34,208.04 563.96,208.86 562.56,209.78 C561.16,210.7 559.82,211.64 558.54,212.6 C557.26,213.56 556.1,214.54 555.06,215.54 C554.02,216.54 553.26,217.44 552.78,218.24 C552.14,219.28 551.62,220.4 551.22,221.6 C550.82,222.8 550.62,224.04 550.62,225.32 C550.62,227.56 551,229.56 551.76,231.32 C552.52,233.08 553.54,234.56 554.82,235.76 C556.1,236.96 557.54,237.88 559.14,238.52 C560.74,239.16 562.38,239.48 564.06,239.48 L564.06,239.48 L564.66,239.48 Z M580.14,233 C578.7,233 577.38,232.3 576.18,230.9 C574.98,229.5 574.38,228.04 574.38,226.52 L574.38,226.52 L574.38,219.08 C574.38,217 574.66,214.9 575.22,212.78 C575.78,210.66 576.56,208.68 577.56,206.84 C578.56,205 579.78,203.34 581.22,201.86 C582.66,200.38 584.26,199.24 586.02,198.44 L586.02,198.44 L586.02,230.36 C585.38,230.76 584.66,231.16 583.86,231.56 L583.86,231.56 L581.7,232.64 C581.22,232.88 580.7,233 580.14,233 Z M659.46,239 L659.46,238.04 L650.46,238.04 L650.46,194.72 C650.46,193.76 650.54,192.56 650.7,191.12 C650.86,189.68 651.12,188.22 651.48,186.74 C651.84,185.26 652.26,183.88 652.74,182.6 C653.22,181.32 653.82,180.32 654.54,179.6 C655.1,178.96 655.7,178.42 656.34,177.98 C656.98,177.54 657.66,177.32 658.38,177.32 C659.1,177.32 659.84,177.42 660.6,177.62 C661.36,177.82 661.98,178.2 662.46,178.76 C663.34,179.96 663.96,181.36 664.32,182.96 C664.68,184.56 664.86,186.16 664.86,187.76 L664.86,187.76 L664.86,221.12 C664.86,223.6 665.22,225.92 665.94,228.08 C666.66,230.24 667.86,232.14 669.54,233.78 C671.22,235.42 673.4,236.7 676.08,237.62 C678.76,238.54 682.06,239 685.98,239 L685.98,239 L696.54,239 L696.54,238.04 C693.9,238.04 692.04,236.66 690.96,233.9 C689.88,231.14 689.34,227.4 689.34,222.68 L689.34,222.68 L689.34,187.4 C689.34,186.44 689.2,185.5 688.92,184.58 C688.64,183.66 688.3,182.76 687.9,181.88 C686.78,179.48 685.18,177.6 683.1,176.24 C681.02,174.88 678.62,174 675.9,173.6 C673.18,173.2 670.62,173 668.22,173 C665.82,173 663.56,173.36 661.44,174.08 C659.32,174.8 657.3,175.96 655.38,177.56 C654.18,178.44 653.22,179.32 652.5,180.2 C651.78,181.08 651.1,182.2 650.46,183.56 L650.46,183.56 L650.46,174.44 C648.78,174.92 646.52,175.32 643.68,175.64 C640.84,175.96 637.82,176.22 634.62,176.42 C631.42,176.62 628.22,176.76 625.02,176.84 C621.82,176.92 619.1,176.96 616.86,176.96 L616.86,176.96 L616.86,177.92 L625.98,177.92 L625.98,238.04 L616.98,238.04 L616.98,239 L659.46,239 Z M720.18,170.96 C722.02,170.96 723.76,170.72 725.4,170.24 C727.04,169.76 728.48,169.1 729.72,168.26 C730.96,167.42 731.94,166.44 732.66,165.32 C733.38,164.2 733.74,163 733.74,161.72 C733.74,160.44 733.38,159.24 732.66,158.12 C731.94,157 730.96,156.02 729.72,155.18 C728.48,154.34 727.04,153.68 725.4,153.2 C723.76,152.72 722.02,152.48 720.18,152.48 C718.34,152.48 716.6,152.72 714.96,153.2 C713.32,153.68 711.88,154.34 710.64,155.18 C709.4,156.02 708.42,157 707.7,158.12 C706.98,159.24 706.62,160.44 706.62,161.72 C706.62,163 706.98,164.2 707.7,165.32 C708.42,166.44 709.4,167.42 710.64,168.26 C711.88,169.1 713.32,169.76 714.96,170.24 C716.6,170.72 718.34,170.96 720.18,170.96 Z M741.06,239 L741.06,238.04 L732.06,238.04 L732.06,174.44 C730.38,174.92 728.14,175.32 725.34,175.64 C722.54,175.96 719.56,176.22 716.4,176.42 C713.24,176.62 710.1,176.76 706.98,176.84 C703.86,176.92 701.18,176.96 698.94,176.96 L698.94,177.92 L708.06,177.92 L708.06,238.04 L698.94,238.04 L698.94,239 L741.06,239 Z" id="DanielMoya" fill="#000000" fill-rule="nonzero"></path>
        <path d="M821.457855,275.960623 C825.67654,275.967266 829.310588,276.027059 832.36,276.14 C835.6,276.26 838.4,276.68 840.76,277.4 C843.12,278.12 845.16,279.2 846.88,280.64 C848.6,282.08 850.18,284.12 851.62,286.76 L851.62,286.76 L866.02,313.04 L876.7,285.44 L876.813437,285.144688 C877.062812,284.466563 877.205,283.865 877.24,283.34 C877.28,282.74 877.3,282.24 877.3,281.84 C877.3,280.72 877.1,279.82 876.7,279.14 C876.3,278.46 875.82,277.96 875.26,277.64 C874.7,277.32 874.1,277.12 873.46,277.04 C872.82,276.96 872.26,276.92 871.78,276.92 L871.78,276.92 L869.38,276.92 L869.38,275.96 L890.62,275.96 L890.62,276.92 L889.06,276.92 L888.649333,276.923467 C886.757778,276.955822 885.214667,277.214667 884.02,277.7 C882.74,278.22 881.7,278.9 880.9,279.74 C880.1,280.58 879.48,281.48 879.04,282.44 C878.6,283.4 878.22,284.32 877.9,285.2 L877.9,285.2 L852.22,350 L851.994167,350.515 C851.144722,352.385 850.06,354.053333 848.74,355.52 C847.3,357.12 845.74,358.46 844.06,359.54 C842.38,360.62 840.66,361.44 838.9,362 C837.14,362.56 835.54,362.84 834.1,362.84 C832.74,362.84 831.4,362.58 830.08,362.06 C828.76,361.54 827.58,360.8 826.54,359.84 C825.5,358.88 824.66,357.74 824.02,356.42 C823.38,355.1 823.06,353.64 823.06,352.04 C823.06,350.52 823.36,349.08 823.96,347.72 C824.56,346.36 825.38,345.18 826.42,344.18 C827.46,343.18 828.66,342.38 830.02,341.78 C831.38,341.18 832.82,340.88 834.34,340.88 C836.34,340.88 838.18,341.38 839.86,342.38 C841.54,343.38 842.82,344.84 843.7,346.76 L843.7,346.76 L845.74,351.2 L845.860469,351.403438 C846.465156,352.387813 847.105,352.88 847.78,352.88 C848.34,352.88 848.9,352.54 849.46,351.86 C850.02,351.18 850.5,350.52 850.9,349.88 L850.9,349.88 L855.58,338 L855.463945,337.782215 C854.828374,336.588581 853.927059,334.881176 852.76,332.66 C851.52,330.3 850.08,327.58 848.44,324.5 C846.8,321.42 845.02,318.1 843.1,314.54 C841.18,310.98 839.22,307.44 837.22,303.92 C835.22,300.4 833.24,297.02 831.28,293.78 C829.32,290.54 827.48,287.66 825.76,285.14 C824.04,282.62 822.48,280.62 821.08,279.14 C819.68,277.66 818.58,276.92 817.78,276.92 L817.78,276.92 L816.94,276.92 L816.94,275.96 Z M780.7,274.16 L781.281653,274.160992 C783.195702,274.167603 784.861818,274.207273 786.28,274.28 C787.84,274.36 789.4,274.62 790.96,275.06 C792.52,275.5 794.2,276.16 796,277.04 C797.8,277.92 799.98,279.2 802.54,280.88 C805.9,283.04 808.76,286.3 811.12,290.66 C813.48,295.02 814.66,300.32 814.66,306.56 C814.66,312.8 813.48,318.12 811.12,322.52 C808.76,326.92 805.9,330.16 802.54,332.24 C799.98,333.92 797.8,335.2 796,336.08 C794.2,336.96 792.52,337.62 790.96,338.06 C789.4,338.5 787.84,338.76 786.28,338.84 C784.861818,338.912727 783.195702,338.952397 781.281653,338.959008 L781.281653,338.959008 L779.5,338.96 L778.8598,338.9588 C776.9626,338.9516 775.276,338.912 773.8,338.84 C772.16,338.76 770.5,338.5 768.82,338.06 C767.14,337.62 765.36,336.96 763.48,336.08 C761.6,335.2 759.38,333.92 756.82,332.24 C753.46,330.16 750.6,326.92 748.24,322.52 C745.88,318.12 744.7,312.8 744.7,306.56 C744.7,300.32 745.88,295.02 748.24,290.66 C750.6,286.3 753.46,283.04 756.82,280.88 C759.38,279.2 761.58,277.92 763.42,277.04 C765.26,276.16 766.96,275.5 768.52,275.06 C770.08,274.62 771.64,274.36 773.2,274.28 C774.76,274.2 776.62,274.16 778.78,274.16 L778.78,274.16 L780.7,274.16 Z M923.02,274.04 C925.98,274.04 928.98,274.32 932.02,274.88 C935.06,275.44 937.82,276.4 940.3,277.76 C942.78,279.12 944.82,281.02 946.42,283.46 C948.02,285.9 948.82,288.96 948.82,292.64 L948.82,292.64 L948.82,337.04 L957.7,337.04 L957.7,338 L926.74,338 L926.74,330.56 L925.9,331.04 L925.084793,331.497686 C922.340992,333.021653 919.332727,334.529091 916.06,336.02 C912.46,337.66 908.9,338.48 905.38,338.48 L905.38,338.48 L904.78,338.48 L904.32281,338.472066 C902.802149,338.419174 901.314545,338.101818 899.86,337.52 C898.26,336.88 896.82,335.96 895.54,334.76 C894.26,333.56 893.24,332.08 892.48,330.32 C891.72,328.56 891.34,326.56 891.34,324.32 C891.34,323.04 891.54,321.8 891.94,320.6 C892.34,319.4 892.86,318.28 893.5,317.24 C893.98,316.44 894.74,315.54 895.78,314.54 C896.82,313.54 897.98,312.56 899.26,311.6 C900.54,310.64 901.88,309.7 903.28,308.78 C904.68,307.86 906.06,307.04 907.42,306.32 C910.46,304.56 913.68,302.84 917.08,301.16 C920.48,299.48 923.7,297.84 926.74,296.24 L926.74,296.24 L926.74,293.24 L926.732653,292.348571 C926.703265,290.565714 926.585714,288.782857 926.38,287 C926.14,284.92 925.58,283.04 924.7,281.36 C923.82,279.68 922.56,278.32 920.92,277.28 C919.28,276.24 917.1,275.72 914.38,275.72 C913.42,275.72 912.44,275.78 911.44,275.9 C910.44,276.02 909.5,276.28 908.62,276.68 C907.9,277 907.24,277.5 906.64,278.18 C906.04,278.86 905.74,279.64 905.74,280.52 C905.74,281.72 906.2,282.68 907.12,283.4 C908.04,284.12 909.08,284.84 910.24,285.56 C911.4,286.28 912.44,287.12 913.36,288.08 C914.28,289.04 914.74,290.28 914.74,291.8 C914.74,294.36 913.88,296.36 912.16,297.8 C910.44,299.24 908.46,299.96 906.22,299.96 C904.86,299.96 903.52,299.7 902.2,299.18 C900.88,298.66 899.68,297.92 898.6,296.96 C897.52,296 896.64,294.88 895.96,293.6 C895.28,292.32 894.94,290.92 894.94,289.4 C894.94,286.12 895.92,283.48 897.88,281.48 C899.84,279.48 902.26,277.92 905.14,276.8 C908.02,275.68 911.08,274.94 914.32,274.58 C917.56,274.22 920.46,274.04 923.02,274.04 Z M636.82,254 L637.541481,254.034074 C639.469383,254.144691 641.428889,254.413333 643.42,254.84 C645.34,255.24 647.46,255.94 649.78,256.94 C652.1,257.94 654.38,259.32 656.62,261.08 C658.86,263.08 660.94,265.56 662.86,268.52 C664.78,271.48 666.58,274.64 668.26,278 C669.94,281.36 671.48,284.76 672.88,288.2 C674.28,291.64 675.56,294.86 676.72,297.86 C677.88,300.86 678.94,303.5 679.9,305.78 C680.86,308.06 681.7,309.64 682.42,310.52 L682.42,310.52 L702.46,254 L741.22,254 L741.22,254.96 L729.22,254.96 L729.22,337.04 L741.22,337.04 L741.22,338 L690.34,338 L690.34,337.04 L702.34,337.04 L702.34,257.12 L673.66,338 L672.58,338 L672.407883,337.994872 C670.852628,337.902577 669.13,336.564286 667.24,333.98 C665.28,331.3 663.22,327.82 661.06,323.54 C658.9,319.26 656.64,314.44 654.28,309.08 C651.92,303.72 649.54,298.38 647.14,293.06 C644.74,287.74 642.34,282.68 639.94,277.88 C637.54,273.08 635.22,269.08 632.98,265.88 L632.98,265.88 L632.98,331.28 L632.986563,331.577187 C633.052188,333.049062 633.61,334.31 634.66,335.36 C635.78,336.48 637.14,337.04 638.74,337.04 L638.74,337.04 L646.9,337.04 L646.9,338 L618.22,338 L618.22,337.04 L626.26,337.04 L626.557188,337.033437 C628.029063,336.967813 629.29,336.41 630.34,335.36 C631.46,334.24 632.02,332.88 632.02,331.28 L632.02,331.28 L632.02,264.56 L631.5904,264.0416 C631.0208,263.3632 630.464,262.736 629.92,262.16 C629.24,261.44 628.58,260.84 627.94,260.36 C625.94,259 624.08,257.94 622.36,257.18 C620.64,256.42 619.1,255.88 617.74,255.56 C616.22,255.24 614.82,255.04 613.54,254.96 L613.54,254.96 L613.54,254 L636.82,254 Z M779.74,275.12 C779.26,275.12 778.54,275.28 777.58,275.6 C776.62,275.92 775.3,277.04 773.62,278.96 C772.74,279.92 772.02,281.32 771.46,283.16 C770.9,285 770.46,287.14 770.14,289.58 C769.82,292.02 769.62,294.68 769.54,297.56 C769.46,300.44 769.42,303.44 769.42,306.56 C769.42,309.68 769.46,312.68 769.54,315.56 C769.62,318.44 769.82,321.1 770.14,323.54 C770.46,325.98 770.9,328.12 771.46,329.96 C772.02,331.8 772.74,333.24 773.62,334.28 C774.74,335.48 775.88,336.4 777.04,337.04 C778.2,337.68 779.1,338 779.74,338 L779.74,338 L780.7,338 C782.86,338 784.78,336.8 786.46,334.4 C787.18,333.36 787.78,331.9 788.26,330.02 C788.74,328.14 789.12,325.98 789.4,323.54 C789.68,321.1 789.86,318.44 789.94,315.56 C790.02,312.68 790.06,309.68 790.06,306.56 C790.06,303.44 790,300.44 789.88,297.56 C789.76,294.68 789.56,292.02 789.28,289.58 C789,287.14 788.58,285 788.02,283.16 C787.46,281.32 786.74,279.92 785.86,278.96 C784.1,277.04 782.76,275.92 781.84,275.6 C780.92,275.28 780.22,275.12 779.74,275.12 Z M926.74,297.44 L926.336686,297.630651 C924.734793,298.417396 923.269231,299.493846 921.94,300.86 C920.5,302.34 919.28,304 918.28,305.84 C917.28,307.68 916.5,309.66 915.94,311.78 C915.38,313.9 915.1,316 915.1,318.08 L915.1,318.08 L915.1,325.52 L915.107031,325.804297 C915.177344,327.222266 915.775,328.5875 916.9,329.9 C918.1,331.3 919.42,332 920.86,332 C921.42,332 921.94,331.88 922.42,331.64 L922.42,331.64 L924.186667,330.756667 C924.315556,330.692222 924.446667,330.626667 924.58,330.56 C925.38,330.16 926.1,329.76 926.74,329.36 L926.74,329.36 L926.74,297.44 Z" id="Combined-Shape" fill="#000000"></path>
    </g>
</svg>