<?xml version="1.0" encoding="UTF-8"?>
<svg width="765px" height="765px" viewBox="0 0 765 765" version="1.1" xmlns="http://www.w3.org/2000/svg" xmlns:xlink="http://www.w3.org/1999/xlink">
    <title>Logo</title>
    <g id="Logo" stroke="none" stroke-width="1" fill="none" fill-rule="evenodd">
        <g id="Lynx" transform="translate(382.500000, 382.640554) scale(-1, 1) translate(-382.500000, -382.640554) translate(55.000000, 0.640554)">
            <path d="M620.608322,289.428371 C591.305942,230.797722 546.538418,183.567478 492.817388,151.80921 C474.096423,105.39328 461.896608,94.8943206 461.896608,48.0466696 C469.42941,36.7389132 474.613249,27.6016714 477.448126,20.6349442 C481.700442,10.1848535 463.888003,29.8986083 466.569557,25.2792476 C469.25111,20.659887 489.051287,-3.45309766 481.700442,0.877428601 C474.349597,5.20795486 464.942716,16.0566811 458.237266,25.2792476 C451.531816,34.5018141 466.722067,6.6203704 460.016617,10.1848535 C455.546317,12.5611756 448.742051,21.9453171 439.603819,38.3372781 C405.0046,45.5267059 378.049734,81.7781576 369.096229,109.464853 C342.235714,106.207594 315.3752,111.093482 290.95655,122.493886 C264.90999,135.522919 244.561115,155.066468 231.537835,180.31022 C212.81687,190.081994 199.793591,206.368286 193.281951,225.911835 C186.770311,246.269699 188.398221,268.256192 198.165681,287.799742 C207.93314,307.343291 225.026195,322.000953 245.37507,328.51547 C263.355698,336.020828 277.077495,338.283142 302.164356,350.567854 C319.111135,359.269795 333.718209,367.37902 345.985578,374.895528 C323.485578,386.85203 289.32864,413.204184 282.817,436.819307 C279.56118,447.405396 277.119315,466.948946 290.95655,480.792293 C273.863495,481.606608 256.77044,485.678181 239.677385,493.821326 C240.49134,492.192697 240.49134,491.378382 241.305295,489.749753 C242.933205,484.863866 247.00298,480.792293 251.072755,475.906406 C260.840215,463.691687 277.93327,442.519509 252.700665,414.832814 C246.189025,407.503983 238.049475,404.246724 228.282015,405.875353 C184.328446,413.204184 133.049281,518.250763 133.049281,519.065078 C121.653911,542.6802 115.956226,562.223749 113.514361,576.067097 C99.6771264,550.823346 86.6538465,516.622134 79.3282516,470.206204 C60.6072868,355.387851 138.746966,269.070507 139.560921,269.070507 C150.142336,258.484418 165.607481,232.426352 145.258606,207.996915 C138.746966,200.668084 130.607416,196.596511 121.653911,196.596511 C103.746901,196.596511 89.0957115,211.254173 87.4678015,212.882802 C-5.32306766,312.229179 -26.4858975,461.248744 34.560727,582.581613 C59.7933318,632.254802 97.2352615,675.413474 142.816741,706.357427 C198.165681,743.815897 262.468125,763.359446 327.584524,763.359446 C378.049734,763.359446 427.700989,751.959042 474.096423,728.34392 C635.259512,647.726778 701.189866,450.662654 620.608322,289.428371 Z" id="Path" fill="#FFFFFF"></path>
            <path d="M119.127517,212.359446 C136.246404,221.55237 138.373707,236.808047 125.509426,258.126478 C55.3536252,343.184184 67.3639068,521.65356 94.7989032,586.362903 C113.088901,629.502466 150.956281,656.618996 208.401044,667.712495 C234.133681,667.712495 247,678.861755 247,701.160274 C241.372591,725.498531 224.261,731.478182 195.665227,719.099228 C138.65223,702.047048 93.4451667,665.809101 60.0440362,610.385384 C9.94234051,527.24981 -0.181589931,472.770772 25.9738632,349.839053 C43.4108319,267.884575 74.46205,222.058039 119.127517,212.359446 Z M283.309012,171.356129 C303.741692,168.066611 321.432539,172.919802 336.381554,185.915703 C346.084225,193.272254 351.658015,196.324938 353.102923,195.073756 C355.270285,193.196983 354.829827,231.844269 336.381554,245.005751 C317.933282,258.167233 304.109294,249.011145 283.309012,234.548806 C262.508731,220.086466 231.139157,220.041854 224.414464,227.538616 C212.482568,227.124861 234.910905,206.983276 244.404033,185.915703 C253.897162,164.848131 252.659993,176.290407 283.309012,171.356129 Z M444.75425,55.3594463 C444.75425,74.3557777 458.50247,113.561853 485.998911,172.977672 C496.66703,176.53763 496.66703,182.896097 485.998911,192.053073 C469.996733,205.788538 382.678656,106.957957 392.816447,94.7714515 C402.954237,82.5849465 426.217841,55.3594463 444.75425,55.3594463 Z" id="Black-spots" fill="#000000"></path>
            <path d="M528.863658,610.321502 C544.877283,624.473527 534.917851,645.858373 519.704006,659.82455 C514.139382,664.932826 506.977618,668.568437 499.436747,670.433706 C499.645694,670.947989 499.84614,671.465887 500.037928,671.985867 C505.223404,686.044845 499.907563,705.154289 486.727539,710.877119 C473.547515,716.599949 455.980133,713.173364 449.671509,692.719717 C446.448186,682.26915 448.165628,673.7662 452.441017,667.022961 C448.288384,663.696703 444.82437,658.699664 442.671509,651.719717 C436.953529,633.181043 446.783451,620.771253 458.859572,613.44138 C461.023435,610.618941 463.684852,607.866536 466.894226,605.229598 C489.674835,586.512225 512.850033,596.169477 528.863658,610.321502 Z M173.70396,594.066927 C172.957775,612.492565 158.798826,632.490418 142.238902,633.749183 C125.678978,635.007947 108.528013,623.862149 110.927039,597.55998 C113.326064,571.257811 132.524437,561.335421 150.157309,558.866608 C167.79018,556.397795 174.450144,575.64129 173.70396,594.066927 Z M603.529243,573.508121 C610.059101,591.807109 603.365079,616.679718 586.768012,624.128481 C570.170944,631.577244 548.049057,627.117244 540.104863,600.495037 C532.160669,573.87283 548.049057,556.961062 565.274373,547.926106 C582.49969,538.89115 596.999384,555.209134 603.529243,573.508121 Z M641.780337,400.163334 C643.409746,405.177418 643.325397,409.74522 641.977666,413.822867 C641.99768,413.877025 642.017851,413.931435 642.037928,413.985867 C647.223404,428.044845 641.907563,447.154289 628.727539,452.877119 C615.547515,458.599949 597.980133,455.173364 591.671509,434.719717 L591.532439,434.258486 C580.222598,430.787477 570.461205,422.757611 567.5815,411.745201 C562.967104,394.099089 570.253987,372.467861 596.237638,367.984597 C622.221288,363.501332 635.77324,381.67804 641.780337,400.163334 Z M408.2749,389.985867 C415.47695,404.044845 408.093837,423.154289 389.788248,428.877119 C371.482659,434.599949 347.083519,431.173364 338.32154,410.719717 C329.559561,390.26607 347.083519,377.272883 366.082029,370.331392 C385.08054,363.389901 401.07285,375.926889 408.2749,389.985867 Z M585.530836,251.701777 C596.414018,279.460718 586.989209,316.407987 561.955472,331.63685 C562.554448,343.688503 557.055417,356.392705 546.727539,360.877119 C533.547515,366.599949 515.980133,363.173364 509.671509,342.719717 C509.06855,340.764821 508.638478,338.878075 508.365696,337.05825 C492.304807,331.502936 478.180329,318.620054 470.807326,296.131456 C456.437681,252.302212 485.176971,224.459667 516.334528,209.585044 C547.492086,194.710421 573.719475,221.575396 585.530836,251.701777 Z M279.065717,148.338091 C291.237204,140.732725 376.142514,114.536575 363.118292,137.748473 C360.834728,141.818265 398.307451,176.138666 373.446693,192.491218 C368.001651,196.072779 356.462691,199.046918 335.902162,192.491218 C323.201399,188.441594 301.225205,180.072982 285.582232,181.813473 C276.504778,182.823462 265.512943,193.005453 252.606727,212.359446 C247.535576,205.497579 245,198.874836 245,192.491218 C245,182.91579 252.606727,164.871016 279.065717,148.338091 Z M405.231057,89.3594463 C405.713479,103.771309 411.661782,115.080785 423.075965,123.287874 C440.197241,135.598509 461.932929,162.926786 432.512834,154.912323 C403.092738,146.89786 377.247697,139.296402 385.586174,122.859446 C391.145158,111.901476 397.693452,100.734809 405.231057,89.3594463 Z" id="Orange-spots" fill="#FF6C00" fill-rule="nonzero"></path>
            <path d="M620.608322,289.428371 C591.305942,230.797722 546.538418,183.567478 492.817388,151.80921 C474.096423,105.39328 461.896608,94.8943206 461.896608,48.0466696 C469.42941,36.7389132 474.613249,27.6016714 477.448126,20.6349442 C481.700442,10.1848535 463.888003,29.8986083 466.569557,25.2792476 C469.25111,20.659887 489.051287,-3.45309766 481.700442,0.877428601 C474.349597,5.20795486 464.942716,16.0566811 458.237266,25.2792476 C451.531816,34.5018141 466.722067,6.6203704 460.016617,10.1848535 C455.546317,12.5611756 448.742051,21.9453171 439.603819,38.3372781 C405.0046,45.5267059 378.049734,81.7781576 369.096229,109.464853 C342.235714,106.207594 315.3752,111.093482 290.95655,122.493886 C264.90999,135.522919 244.561115,155.066468 231.537835,180.31022 C212.81687,190.081994 199.793591,206.368286 193.281951,225.911835 C186.770311,246.269699 188.398221,268.256192 198.165681,287.799742 C207.93314,307.343291 225.026195,322.000953 245.37507,328.51547 C263.355698,336.020828 277.077495,338.283142 302.164356,350.567854 C319.111135,359.269795 333.718209,367.37902 345.985578,374.895528 C323.485578,386.85203 289.32864,413.204184 282.817,436.819307 C279.56118,447.405396 277.119315,466.948946 290.95655,480.792293 C273.863495,481.606608 256.77044,485.678181 239.677385,493.821326 C240.49134,492.192697 240.49134,491.378382 241.305295,489.749753 C242.933205,484.863866 247.00298,480.792293 251.072755,475.906406 C260.840215,463.691687 277.93327,442.519509 252.700665,414.832814 C246.189025,407.503983 238.049475,404.246724 228.282015,405.875353 C184.328446,413.204184 133.049281,518.250763 133.049281,519.065078 C121.653911,542.6802 115.956226,562.223749 113.514361,576.067097 C99.6771264,550.823346 86.6538465,516.622134 79.3282516,470.206204 C60.6072868,355.387851 138.746966,269.070507 139.560921,269.070507 C150.142336,258.484418 165.607481,232.426352 145.258606,207.996915 C138.746966,200.668084 130.607416,196.596511 121.653911,196.596511 C103.746901,196.596511 89.0957115,211.254173 87.4678015,212.882802 C-5.32306766,312.229179 -26.4858975,461.248744 34.560727,582.581613 C59.7933318,632.254802 97.2352615,675.413474 142.816741,706.357427 C198.165681,743.815897 262.468125,763.359446 327.584524,763.359446 C378.049734,763.359446 427.700989,751.959042 474.096423,728.34392 C635.259512,647.726778 701.189866,450.662654 620.608322,289.428371 Z M476.742651,474.039073 C473.489009,481.370524 473.489009,489.516581 476.742651,497.662639 C491.384037,530.246867 572.725072,557.128855 597.940792,565.274912 C588.993279,584.825449 577.605534,603.56138 563.777558,620.6681 C545.88253,609.26362 508.465654,590.527689 484.876754,614.96586 C476.742651,623.111917 473.489009,633.701791 474.302419,644.291665 C475.92924,663.027596 490.570626,677.690499 497.89132,683.392739 C486.503575,691.538796 474.302419,698.870247 461.287854,704.572487 C363.678612,753.44883 247.360932,745.302772 157.072384,684.207345 C114.775046,655.696145 80.6118111,615.780466 57.8363214,570.162546 C1.71100735,458.561565 21.2328557,321.707807 106.640942,230.471968 C109.894584,227.213545 116.401866,222.325911 120.468918,222.325911 C121.282328,222.325911 122.095739,222.325911 123.72256,224.769728 C132.670073,235.359602 122.095739,246.764082 119.655508,249.207899 C116.401866,253.280927 30.9937799,346.145978 52.1424489,474.039073 C76.5447594,631.257974 161.952846,663.027596 172.52718,667.100625 C246.547522,698.055642 314.873991,662.212991 317.314222,660.583779 C326.443557,655.203329 329.528242,648.958019 326.568279,641.847848 C323.608316,634.737677 316.185442,633.108466 304.299657,636.960214 C303.486246,636.960214 244.107291,668.729836 181.474694,641.847848 L179.847874,641.033242 C178.221053,640.218637 157.072384,633.701791 134.296894,607.634409 C135.923715,605.190591 135.110304,574.235575 156.258973,531.061472 C179.847874,480.555919 217.26475,434.123394 229.465905,434.123394 L230.279315,434.123394 C240.040239,445.527873 238.413419,447.971691 227.839084,460.190776 C222.958622,465.893016 217.26475,472.409862 214.011108,481.370524 C205.063594,502.550273 193.675849,522.915415 185.541746,537.578318 C178.221053,548.982798 173.392736,558.089574 173.392736,558.089574 C173.392736,558.465732 166.869869,568.112296 178.018442,577.027229 C188.008239,583.392821 196.889135,572.227447 196.889135,571.788998 C197.702545,570.974393 202.623363,564.460306 209.130646,553.055826 C218.89157,540.022135 231.906136,529.432261 247.360932,522.10081 C280.710757,505.808696 318.127633,506.623301 349.037226,522.915415 C369.372485,533.50529 386.454102,550.612009 397.841847,572.606363 C407.602771,592.971506 411.669823,614.96586 408.416181,636.960214 C407.602771,644.291665 412.483233,650.808511 419.803926,652.437722 C420.617337,652.437722 420.617337,652.437722 421.430747,652.437722 C427.93803,652.437722 433.631902,647.550088 434.445312,641.033242 C437.698954,613.336648 433.631902,585.640055 420.617337,560.387278 C408.416181,536.763712 391.334564,518.027781 370.185895,504.99409 C373.439536,484.628947 366.932254,464.263805 366.118843,461.005382 C366.118843,460.190776 366.118843,460.190776 365.305433,459.37617 C366.932254,457.746959 369.372485,455.303142 371.812716,453.673931 C376.693178,450.415508 383.20046,447.157085 388.894333,447.157085 C395.401616,447.157085 401.095488,450.415508 406.789361,457.746959 C411.669823,463.449199 419.803926,464.263805 425.497799,459.37617 C431.191671,454.488536 432.005081,446.342479 427.124619,440.640239 C413.296643,424.348125 398.655257,420.275097 388.080923,420.275097 C360.424971,420.275097 340.089712,444.713268 337.649481,447.971691 C336.836071,448.786296 336.02266,449.600902 336.02266,450.415508 C335.20925,451.230113 325.448326,472.409862 309.993529,465.893016 C301.046015,461.819988 304.299657,450.415508 305.113067,447.157085 C311.62035,425.162731 326.261736,407.241405 347.410405,396.651531 C384.827281,377.9156 430.378261,390.134686 453.15375,425.162731 C457.220802,431.679577 465.354906,433.308788 471.862188,429.235759 C478.369471,425.162731 479.996292,417.016674 475.92924,410.499828 C458.034213,382.803234 429.56485,365.696515 399.468667,361.623486 C326.568279,359.253277 343.538842,330.533097 262.002319,310.303327 C262.002319,310.303327 227.839084,295.751313 221.331801,276.904493 C214.824518,263.870802 214.011108,249.207899 218.07816,235.359602 C218.503144,234.508384 220.502516,229.253608 223.902463,226.042632 C227.30241,222.831657 231.590827,221.474693 233.532956,220.696699 L245.734112,220.696699 L253.868215,220.696699 C259.562088,220.696699 264.44255,217.438276 266.06937,211.736037 C268.509601,206.033797 266.882781,200.331557 262.002319,196.258528 L255.495036,191.370894 C266.06937,171.820357 282.337577,156.342849 301.859426,146.56758 C318.941043,138.421523 337.649481,134.348495 356.357919,135.1631 C358.79815,135.1631 360.424971,135.977706 362.865202,135.977706 C362.051791,145.752975 362.051791,153.899032 363.678612,161.230483 C364.492022,168.561934 371.812716,173.449568 379.133409,172.634963 C384.827281,171.820357 389.707743,166.932723 390.521154,161.230483 C390.521154,159.601271 390.521154,158.786666 390.521154,157.157454 C390.521154,156.342849 389.707743,149.826003 389.707743,140.050735 C389.707743,132.719283 391.334564,122.944015 394.588205,113.983352 C400.282078,97.691238 408.416181,69.2300744 438.525475,64.2075908 C438.525475,90.1511074 445.833057,108.281112 455.593981,133.533889 C460.474444,145.752975 465.354906,158.786666 470.235368,171.005751 C471.048778,172.634963 471.862188,174.264174 471.862188,175.893386 C473.489009,178.337203 474.302419,181.595625 475.11583,184.039443 C477.556061,188.927077 482.436523,192.1855 487.316985,192.1855 C488.943806,192.1855 491.384037,192.1855 493.010857,191.370894 C494.637678,190.556288 496.264499,189.741683 497.077909,188.927077 C534.494785,214.179854 565.404378,248.393293 588.179868,289.123578 C558.083685,302.971875 543.373901,317.016074 535.792092,327.198352 C528.210283,337.38063 533.289549,360.2186 535.792092,365.30617 C538.294636,370.393741 546.718513,385.247051 568.516036,387.690869 C590.313559,390.134686 610.141948,390.134686 623.156513,387.690869 C626.410155,408.870617 628.036975,429.235759 626.410155,450.415508 C589.806689,444.713268 494.637678,435.752605 476.742651,474.039073 Z" id="Shape" fill="#000000" fill-rule="nonzero"></path>
        </g>
    </g>
</svg>